<?xml version="1.0" encoding="utf-8" standalone="no"?>
<!DOCTYPE svg PUBLIC "-//W3C//DTD SVG 1.1//EN"
  "http://www.w3.org/Graphics/SVG/1.1/DTD/svg11.dtd">
<svg xmlns:xlink="http://www.w3.org/1999/xlink" width="453.6pt" height="338.4pt" viewBox="0 0 453.6 338.4" xmlns="http://www.w3.org/2000/svg" version="1.1">
 <metadata>
  <rdf:RDF xmlns:dc="http://purl.org/dc/elements/1.1/" xmlns:cc="http://creativecommons.org/ns#" xmlns:rdf="http://www.w3.org/1999/02/22-rdf-syntax-ns#">
   <cc:Work>
    <dc:type rdf:resource="http://purl.org/dc/dcmitype/StillImage"/>
    <dc:date>2022-02-07T09:51:33.729758</dc:date>
    <dc:format>image/svg+xml</dc:format>
    <dc:creator>
     <cc:Agent>
      <dc:title>Matplotlib v3.5.1, https://matplotlib.org/</dc:title>
     </cc:Agent>
    </dc:creator>
   </cc:Work>
  </rdf:RDF>
 </metadata>
 <defs>
  <style type="text/css">*{stroke-linejoin: round; stroke-linecap: butt}</style>
 </defs>
 <g id="figure_1">
  <g id="patch_1">
   <path d="M 0 338.4 
L 453.6 338.4 
L 453.6 0 
L 0 0 
L 0 338.4 
z
" style="fill: none"/>
  </g>
  <g id="axes_1">
   <g id="patch_2">
    <path d="M 81.925 289.23 
L 446.4 289.23 
L 446.4 7.2 
L 81.925 7.2 
L 81.925 289.23 
z
" style="fill: none"/>
   </g>
   <g id="matplotlib.axis_1">
    <g id="xtick_1">
     <g id="line2d_1">
      <defs>
       <path id="m339a1394d1" d="M 0 0 
L 0 3.5 
" style="stroke: #000000; stroke-width: 0.8"/>
      </defs>
      <g>
       <use xlink:href="#m339a1394d1" x="130.018201" y="289.23" style="stroke: #000000; stroke-width: 0.8"/>
      </g>
     </g>
     <g id="text_1">
      <!-- 0.8 -->
      <g transform="translate(117.295701 308.3875)scale(0.16 -0.16)">
       <defs>
        <path id="DejaVuSans-30" d="M 2034 4250 
Q 1547 4250 1301 3770 
Q 1056 3291 1056 2328 
Q 1056 1369 1301 889 
Q 1547 409 2034 409 
Q 2525 409 2770 889 
Q 3016 1369 3016 2328 
Q 3016 3291 2770 3770 
Q 2525 4250 2034 4250 
z
M 2034 4750 
Q 2819 4750 3233 4129 
Q 3647 3509 3647 2328 
Q 3647 1150 3233 529 
Q 2819 -91 2034 -91 
Q 1250 -91 836 529 
Q 422 1150 422 2328 
Q 422 3509 836 4129 
Q 1250 4750 2034 4750 
z
" transform="scale(0.015625)"/>
        <path id="DejaVuSans-2e" d="M 684 794 
L 1344 794 
L 1344 0 
L 684 0 
L 684 794 
z
" transform="scale(0.015625)"/>
        <path id="DejaVuSans-38" d="M 2034 2216 
Q 1584 2216 1326 1975 
Q 1069 1734 1069 1313 
Q 1069 891 1326 650 
Q 1584 409 2034 409 
Q 2484 409 2743 651 
Q 3003 894 3003 1313 
Q 3003 1734 2745 1975 
Q 2488 2216 2034 2216 
z
M 1403 2484 
Q 997 2584 770 2862 
Q 544 3141 544 3541 
Q 544 4100 942 4425 
Q 1341 4750 2034 4750 
Q 2731 4750 3128 4425 
Q 3525 4100 3525 3541 
Q 3525 3141 3298 2862 
Q 3072 2584 2669 2484 
Q 3125 2378 3379 2068 
Q 3634 1759 3634 1313 
Q 3634 634 3220 271 
Q 2806 -91 2034 -91 
Q 1263 -91 848 271 
Q 434 634 434 1313 
Q 434 1759 690 2068 
Q 947 2378 1403 2484 
z
M 1172 3481 
Q 1172 3119 1398 2916 
Q 1625 2713 2034 2713 
Q 2441 2713 2670 2916 
Q 2900 3119 2900 3481 
Q 2900 3844 2670 4047 
Q 2441 4250 2034 4250 
Q 1625 4250 1398 4047 
Q 1172 3844 1172 3481 
z
" transform="scale(0.015625)"/>
       </defs>
       <use xlink:href="#DejaVuSans-30"/>
       <use xlink:href="#DejaVuSans-2e" x="63.623047"/>
       <use xlink:href="#DejaVuSans-38" x="95.410156"/>
      </g>
     </g>
    </g>
    <g id="xtick_2">
     <g id="line2d_2">
      <g>
       <use xlink:href="#m339a1394d1" x="194.598559" y="289.23" style="stroke: #000000; stroke-width: 0.8"/>
      </g>
     </g>
     <g id="text_2">
      <!-- 1.0 -->
      <g transform="translate(181.876059 308.3875)scale(0.16 -0.16)">
       <defs>
        <path id="DejaVuSans-31" d="M 794 531 
L 1825 531 
L 1825 4091 
L 703 3866 
L 703 4441 
L 1819 4666 
L 2450 4666 
L 2450 531 
L 3481 531 
L 3481 0 
L 794 0 
L 794 531 
z
" transform="scale(0.015625)"/>
       </defs>
       <use xlink:href="#DejaVuSans-31"/>
       <use xlink:href="#DejaVuSans-2e" x="63.623047"/>
       <use xlink:href="#DejaVuSans-30" x="95.410156"/>
      </g>
     </g>
    </g>
    <g id="xtick_3">
     <g id="line2d_3">
      <g>
       <use xlink:href="#m339a1394d1" x="259.178916" y="289.23" style="stroke: #000000; stroke-width: 0.8"/>
      </g>
     </g>
     <g id="text_3">
      <!-- 1.2 -->
      <g transform="translate(246.456416 308.3875)scale(0.16 -0.16)">
       <defs>
        <path id="DejaVuSans-32" d="M 1228 531 
L 3431 531 
L 3431 0 
L 469 0 
L 469 531 
Q 828 903 1448 1529 
Q 2069 2156 2228 2338 
Q 2531 2678 2651 2914 
Q 2772 3150 2772 3378 
Q 2772 3750 2511 3984 
Q 2250 4219 1831 4219 
Q 1534 4219 1204 4116 
Q 875 4013 500 3803 
L 500 4441 
Q 881 4594 1212 4672 
Q 1544 4750 1819 4750 
Q 2544 4750 2975 4387 
Q 3406 4025 3406 3419 
Q 3406 3131 3298 2873 
Q 3191 2616 2906 2266 
Q 2828 2175 2409 1742 
Q 1991 1309 1228 531 
z
" transform="scale(0.015625)"/>
       </defs>
       <use xlink:href="#DejaVuSans-31"/>
       <use xlink:href="#DejaVuSans-2e" x="63.623047"/>
       <use xlink:href="#DejaVuSans-32" x="95.410156"/>
      </g>
     </g>
    </g>
    <g id="xtick_4">
     <g id="line2d_4">
      <g>
       <use xlink:href="#m339a1394d1" x="323.759274" y="289.23" style="stroke: #000000; stroke-width: 0.8"/>
      </g>
     </g>
     <g id="text_4">
      <!-- 1.4 -->
      <g transform="translate(311.036774 308.3875)scale(0.16 -0.16)">
       <defs>
        <path id="DejaVuSans-34" d="M 2419 4116 
L 825 1625 
L 2419 1625 
L 2419 4116 
z
M 2253 4666 
L 3047 4666 
L 3047 1625 
L 3713 1625 
L 3713 1100 
L 3047 1100 
L 3047 0 
L 2419 0 
L 2419 1100 
L 313 1100 
L 313 1709 
L 2253 4666 
z
" transform="scale(0.015625)"/>
       </defs>
       <use xlink:href="#DejaVuSans-31"/>
       <use xlink:href="#DejaVuSans-2e" x="63.623047"/>
       <use xlink:href="#DejaVuSans-34" x="95.410156"/>
      </g>
     </g>
    </g>
    <g id="xtick_5">
     <g id="line2d_5">
      <g>
       <use xlink:href="#m339a1394d1" x="388.339631" y="289.23" style="stroke: #000000; stroke-width: 0.8"/>
      </g>
     </g>
     <g id="text_5">
      <!-- 1.6 -->
      <g transform="translate(375.617131 308.3875)scale(0.16 -0.16)">
       <defs>
        <path id="DejaVuSans-36" d="M 2113 2584 
Q 1688 2584 1439 2293 
Q 1191 2003 1191 1497 
Q 1191 994 1439 701 
Q 1688 409 2113 409 
Q 2538 409 2786 701 
Q 3034 994 3034 1497 
Q 3034 2003 2786 2293 
Q 2538 2584 2113 2584 
z
M 3366 4563 
L 3366 3988 
Q 3128 4100 2886 4159 
Q 2644 4219 2406 4219 
Q 1781 4219 1451 3797 
Q 1122 3375 1075 2522 
Q 1259 2794 1537 2939 
Q 1816 3084 2150 3084 
Q 2853 3084 3261 2657 
Q 3669 2231 3669 1497 
Q 3669 778 3244 343 
Q 2819 -91 2113 -91 
Q 1303 -91 875 529 
Q 447 1150 447 2328 
Q 447 3434 972 4092 
Q 1497 4750 2381 4750 
Q 2619 4750 2861 4703 
Q 3103 4656 3366 4563 
z
" transform="scale(0.015625)"/>
       </defs>
       <use xlink:href="#DejaVuSans-31"/>
       <use xlink:href="#DejaVuSans-2e" x="63.623047"/>
       <use xlink:href="#DejaVuSans-36" x="95.410156"/>
      </g>
     </g>
    </g>
    <g id="text_6">
     <!-- $R$ [m] -->
     <g transform="translate(242.0025 327.8725)scale(0.16 -0.16)">
      <defs>
       <path id="DejaVuSans-Oblique-52" d="M 1613 4147 
L 1294 2491 
L 2106 2491 
Q 2584 2491 2879 2755 
Q 3175 3019 3175 3444 
Q 3175 3784 2976 3965 
Q 2778 4147 2406 4147 
L 1613 4147 
z
M 2772 2241 
Q 2972 2194 3105 2009 
Q 3238 1825 3413 1275 
L 3809 0 
L 3144 0 
L 2778 1197 
Q 2638 1659 2453 1815 
Q 2269 1972 1888 1972 
L 1191 1972 
L 806 0 
L 172 0 
L 1081 4666 
L 2503 4666 
Q 3150 4666 3495 4373 
Q 3841 4081 3841 3531 
Q 3841 3044 3547 2687 
Q 3253 2331 2772 2241 
z
" transform="scale(0.015625)"/>
       <path id="DejaVuSans-20" transform="scale(0.015625)"/>
       <path id="DejaVuSans-5b" d="M 550 4863 
L 1875 4863 
L 1875 4416 
L 1125 4416 
L 1125 -397 
L 1875 -397 
L 1875 -844 
L 550 -844 
L 550 4863 
z
" transform="scale(0.015625)"/>
       <path id="DejaVuSans-6d" d="M 3328 2828 
Q 3544 3216 3844 3400 
Q 4144 3584 4550 3584 
Q 5097 3584 5394 3201 
Q 5691 2819 5691 2113 
L 5691 0 
L 5113 0 
L 5113 2094 
Q 5113 2597 4934 2840 
Q 4756 3084 4391 3084 
Q 3944 3084 3684 2787 
Q 3425 2491 3425 1978 
L 3425 0 
L 2847 0 
L 2847 2094 
Q 2847 2600 2669 2842 
Q 2491 3084 2119 3084 
Q 1678 3084 1418 2786 
Q 1159 2488 1159 1978 
L 1159 0 
L 581 0 
L 581 3500 
L 1159 3500 
L 1159 2956 
Q 1356 3278 1631 3431 
Q 1906 3584 2284 3584 
Q 2666 3584 2933 3390 
Q 3200 3197 3328 2828 
z
" transform="scale(0.015625)"/>
       <path id="DejaVuSans-5d" d="M 1947 4863 
L 1947 -844 
L 622 -844 
L 622 -397 
L 1369 -397 
L 1369 4416 
L 622 4416 
L 622 4863 
L 1947 4863 
z
" transform="scale(0.015625)"/>
      </defs>
      <use xlink:href="#DejaVuSans-Oblique-52" transform="translate(0 0.015625)"/>
      <use xlink:href="#DejaVuSans-20" transform="translate(69.482422 0.015625)"/>
      <use xlink:href="#DejaVuSans-5b" transform="translate(101.269531 0.015625)"/>
      <use xlink:href="#DejaVuSans-6d" transform="translate(140.283203 0.015625)"/>
      <use xlink:href="#DejaVuSans-5d" transform="translate(237.695312 0.015625)"/>
     </g>
    </g>
   </g>
   <g id="matplotlib.axis_2">
    <g id="ytick_1">
     <g id="line2d_6">
      <defs>
       <path id="m8ca26248e1" d="M 0 0 
L -3.5 0 
" style="stroke: #000000; stroke-width: 0.8"/>
      </defs>
      <g>
       <use xlink:href="#m8ca26248e1" x="81.925" y="234.353447" style="stroke: #000000; stroke-width: 0.8"/>
      </g>
     </g>
     <g id="text_7">
      <!-- 0.000 -->
      <g transform="translate(29.12 240.432197)scale(0.16 -0.16)">
       <use xlink:href="#DejaVuSans-30"/>
       <use xlink:href="#DejaVuSans-2e" x="63.623047"/>
       <use xlink:href="#DejaVuSans-30" x="95.410156"/>
       <use xlink:href="#DejaVuSans-30" x="159.033203"/>
       <use xlink:href="#DejaVuSans-30" x="222.65625"/>
      </g>
     </g>
    </g>
    <g id="ytick_2">
     <g id="line2d_7">
      <g>
       <use xlink:href="#m8ca26248e1" x="81.925" y="176.324311" style="stroke: #000000; stroke-width: 0.8"/>
      </g>
     </g>
     <g id="text_8">
      <!-- 0.002 -->
      <g transform="translate(29.12 182.403061)scale(0.16 -0.16)">
       <use xlink:href="#DejaVuSans-30"/>
       <use xlink:href="#DejaVuSans-2e" x="63.623047"/>
       <use xlink:href="#DejaVuSans-30" x="95.410156"/>
       <use xlink:href="#DejaVuSans-30" x="159.033203"/>
       <use xlink:href="#DejaVuSans-32" x="222.65625"/>
      </g>
     </g>
    </g>
    <g id="ytick_3">
     <g id="line2d_8">
      <g>
       <use xlink:href="#m8ca26248e1" x="81.925" y="118.295175" style="stroke: #000000; stroke-width: 0.8"/>
      </g>
     </g>
     <g id="text_9">
      <!-- 0.004 -->
      <g transform="translate(29.12 124.373925)scale(0.16 -0.16)">
       <use xlink:href="#DejaVuSans-30"/>
       <use xlink:href="#DejaVuSans-2e" x="63.623047"/>
       <use xlink:href="#DejaVuSans-30" x="95.410156"/>
       <use xlink:href="#DejaVuSans-30" x="159.033203"/>
       <use xlink:href="#DejaVuSans-34" x="222.65625"/>
      </g>
     </g>
    </g>
    <g id="ytick_4">
     <g id="line2d_9">
      <g>
       <use xlink:href="#m8ca26248e1" x="81.925" y="60.266038" style="stroke: #000000; stroke-width: 0.8"/>
      </g>
     </g>
     <g id="text_10">
      <!-- 0.006 -->
      <g transform="translate(29.12 66.344788)scale(0.16 -0.16)">
       <use xlink:href="#DejaVuSans-30"/>
       <use xlink:href="#DejaVuSans-2e" x="63.623047"/>
       <use xlink:href="#DejaVuSans-30" x="95.410156"/>
       <use xlink:href="#DejaVuSans-30" x="159.033203"/>
       <use xlink:href="#DejaVuSans-36" x="222.65625"/>
      </g>
     </g>
    </g>
    <g id="text_11">
     <!-- $q_\perp$ [MWm$^{-2}$] -->
     <g transform="translate(21.76 199.575)rotate(-90)scale(0.16 -0.16)">
      <defs>
       <path id="DejaVuSans-Oblique-71" d="M 2669 525 
Q 2438 222 2123 65 
Q 1809 -91 1428 -91 
Q 897 -91 595 267 
Q 294 625 294 1253 
Q 294 1759 480 2231 
Q 666 2703 1013 3078 
Q 1238 3322 1530 3453 
Q 1822 3584 2144 3584 
Q 2531 3584 2781 3431 
Q 3031 3278 3144 2969 
L 3244 3494 
L 3822 3494 
L 2888 -1319 
L 2309 -1319 
L 2669 525 
z
M 891 1338 
Q 891 875 1084 633 
Q 1278 391 1644 391 
Q 2188 391 2572 911 
Q 2956 1431 2956 2175 
Q 2956 2625 2757 2864 
Q 2559 3103 2188 3103 
Q 1916 3103 1684 2976 
Q 1453 2850 1281 2606 
Q 1100 2350 995 2006 
Q 891 1663 891 1338 
z
" transform="scale(0.015625)"/>
       <path id="STIXGeneral-Regular-27c2" d="M 4102 0 
L 333 0 
L 333 422 
L 2010 422 
L 2010 4237 
L 2432 4237 
L 2432 422 
L 4102 422 
L 4102 0 
z
" transform="scale(0.015625)"/>
       <path id="DejaVuSans-4d" d="M 628 4666 
L 1569 4666 
L 2759 1491 
L 3956 4666 
L 4897 4666 
L 4897 0 
L 4281 0 
L 4281 4097 
L 3078 897 
L 2444 897 
L 1241 4097 
L 1241 0 
L 628 0 
L 628 4666 
z
" transform="scale(0.015625)"/>
       <path id="DejaVuSans-57" d="M 213 4666 
L 850 4666 
L 1831 722 
L 2809 4666 
L 3519 4666 
L 4500 722 
L 5478 4666 
L 6119 4666 
L 4947 0 
L 4153 0 
L 3169 4050 
L 2175 0 
L 1381 0 
L 213 4666 
z
" transform="scale(0.015625)"/>
       <path id="DejaVuSans-2212" d="M 678 2272 
L 4684 2272 
L 4684 1741 
L 678 1741 
L 678 2272 
z
" transform="scale(0.015625)"/>
      </defs>
      <use xlink:href="#DejaVuSans-Oblique-71" transform="translate(0 0.765625)"/>
      <use xlink:href="#STIXGeneral-Regular-27c2" transform="translate(77.114258 -15.640625)scale(0.7)"/>
      <use xlink:href="#DejaVuSans-20" transform="translate(141.99632 0.765625)"/>
      <use xlink:href="#DejaVuSans-5b" transform="translate(173.783429 0.765625)"/>
      <use xlink:href="#DejaVuSans-4d" transform="translate(212.797101 0.765625)"/>
      <use xlink:href="#DejaVuSans-57" transform="translate(299.076398 0.765625)"/>
      <use xlink:href="#DejaVuSans-6d" transform="translate(397.953351 0.765625)"/>
      <use xlink:href="#DejaVuSans-2212" transform="translate(496.322491 39.046875)scale(0.7)"/>
      <use xlink:href="#DejaVuSans-32" transform="translate(554.974835 39.046875)scale(0.7)"/>
      <use xlink:href="#DejaVuSans-5d" transform="translate(602.245343 0.765625)"/>
     </g>
    </g>
   </g>
   <g id="line2d_10">
    <path d="M 98.492045 217.684814 
L 98.876441 217.680997 
L 99.264852 241.783352 
L 100.033132 216.219439 
L 100.416861 223.947 
L 100.804593 213.189474 
L 101.19636 213.498574 
L 101.968513 209.346681 
L 102.355631 212.94906 
L 102.746772 228.522478 
L 103.141968 228.255352 
L 103.917599 205.259659 
L 104.308172 187.736223 
L 104.702787 211.14787 
L 105.101475 198.89444 
L 105.504267 231.3044 
L 106.274262 207.892755 
L 106.672407 204.671983 
L 107.074642 213.05591 
L 107.480998 219.054786 
L 108.253638 186.938664 
L 108.655361 199.871356 
L 109.06119 170.766122 
L 109.471153 168.617669 
L 109.885282 179.100436 
L 110.651335 139.451375 
L 111.060793 153.620475 
L 111.4744 143.38957 
L 111.892185 139.10411 
L 112.659972 90.044601 
L 113.073088 95.959524 
L 113.490362 54.932855 
L 113.911826 67.399987 
L 114.677904 29.590278 
L 115.097661 59.98917 
L 115.518619 72.5059 
L 115.943774 110.456812 
L 116.373156 20.019545 
L 117.134059 94.414018 
L 117.558705 96.917356 
L 117.987555 121.256312 
L 118.420636 111.842037 
L 119.173189 65.984213 
L 119.610111 93.734755 
L 120.042648 90.712407 
L 120.479419 112.105352 
L 121.222223 86.514727 
L 121.668926 57.230138 
L 122.10849 121.179989 
L 122.548931 133.067074 
L 122.993636 123.030788 
L 123.732414 123.0804 
L 124.184477 131.968039 
L 124.628558 121.393692 
L 125.0769 89.621018 
L 125.805924 98.607888 
L 126.263877 100.531187 
L 126.717648 141.321252 
L 127.169585 136.906052 
L 127.888803 137.627294 
L 128.350418 143.832237 
L 128.815514 141.557856 
L 129.270994 148.907623 
L 129.730751 122.828536 
L 130.44557 164.912254 
L 130.914518 142.122634 
L 131.380401 160.821419 
L 131.843632 162.794337 
L 132.548608 170.59058 
L 133.021055 124.267196 
L 133.497053 149.396078 
L 133.963688 145.320503 
L 134.434602 157.360235 
L 135.134638 156.776379 
L 135.614223 164.191012 
L 136.090141 175.452263 
L 136.56437 179.115703 
L 137.254493 198.051085 
L 137.737375 169.373256 
L 138.222197 207.160067 
L 138.699659 180.642134 
L 139.37983 205.034513 
L 140.355696 181.924335 
L 140.839664 189.155806 
L 141.324527 178.463154 
L 141.999028 178.337222 
L 142.491886 171.109563 
L 142.983583 167.255332 
L 143.471485 184.423866 
L 144.135936 172.8268 
L 144.63176 173.540415 
L 145.13062 167.461395 
L 145.621472 178.837127 
L 146.275849 186.9234 
L 146.774532 174.708127 
L 147.276871 179.043196 
L 147.773708 177.978509 
L 148.27164 164.171942 
L 148.919434 163.309496 
L 149.424505 188.316269 
L 149.927438 196.845205 
L 150.428123 172.143726 
L 151.065726 182.363184 
L 152.081936 202.985278 
L 152.585294 198.921151 
L 153.096154 211.498949 
L 153.722934 195.417995 
L 154.236517 215.101329 
L 154.742469 210.792976 
L 155.256152 207.64471 
L 155.872359 215.311213 
L 156.388623 206.072486 
L 156.899012 207.511146 
L 157.415534 216.574334 
L 158.021087 231.262423 
L 158.539695 232.38435 
L 159.403161 190.640262 
L 159.763225 214.513653 
L 160.407128 214.723537 
L 160.7668 212.586532 
L 161.408371 239.81044 
L 161.767629 221.439836 
L 162.127616 226.351129 
L 162.765657 213.483312 
L 163.125201 226.030578 
L 163.760832 208.907832 
L 165.452812 221.832892 
L 165.817588 225.668051 
L 166.450774 205.622185 
L 166.814989 227.133425 
L 167.179866 224.652974 
L 167.809282 242.30234 
L 168.173579 223.435645 
L 168.80044 221.378778 
L 169.164146 228.0531 
L 169.788438 247.419702 
L 170.151546 231.208998 
L 170.515293 226.374025 
L 171.135761 242.184041 
L 171.498896 227.411999 
L 171.622535 238.27256 
L 172.116778 221.672616 
L 172.479297 220.031701 
L 172.696885 223.496701 
L 173.230822 243.595991 
L 173.768501 243.328865 
L 174.307067 242.86712 
L 174.847104 226.854852 
L 175.37099 229.968772 
L 175.910361 239.436464 
L 176.450629 239.054856 
L 176.993124 244.214195 
L 177.507022 241.840594 
L 178.048133 242.218386 
L 178.590097 253.750577 
L 179.135015 238.734306 
L 179.639003 220.821631 
L 180.181923 237.452103 
L 180.7256 241.397929 
L 181.272515 236.582037 
L 181.767104 221.607742 
L 182.311919 237.929113 
L 182.857354 248.240159 
L 183.406294 222.183971 
L 183.891579 232.96821 
L 184.438158 235.76158 
L 184.985659 233.235336 
L 185.536746 246.297774 
L 186.012769 232.769774 
L 186.561147 233.529174 
L 187.110905 229.140683 
L 187.664281 248.747697 
L 188.131106 234.87625 
L 188.681399 249.423144 
L 189.233572 229.384912 
L 189.789399 246.484762 
L 190.247108 248.675192 
L 190.799463 253.223958 
L 191.354231 264.485207 
L 191.912695 243.599807 
L 192.36139 247.045726 
L 192.915984 248.312664 
L 193.473549 248.617952 
L 194.034861 231.762329 
L 194.474661 250.919046 
L 195.031702 228.701834 
L 195.592293 244.439344 
L 196.156688 231.590605 
L 196.587426 246.507659 
L 197.147461 249.171281 
L 197.711334 248.68664 
L 198.279074 247.41207 
L 198.700684 236.746129 
L 199.264214 273.853681 
L 199.831651 247.038094 
L 200.403029 229.926795 
L 200.815697 244.198931 
L 201.383026 226.820507 
L 201.954342 230.773965 
L 202.529682 246.641222 
L 202.93362 247.091519 
L 203.505088 225.828326 
L 204.080633 248.74388 
L 204.660293 276.410455 
L 205.055743 235.143375 
L 205.631725 245.813133 
L 206.211886 245.179664 
L 206.796266 243.584543 
L 207.183498 240.58892 
L 207.764413 245.080446 
L 208.349618 248.213446 
L 208.93916 264.267691 
L 209.31848 227.660044 
L 209.904789 248.240159 
L 210.495515 246.385544 
L 210.647326 231.811938 
L 211.312406 250.174912 
L 211.567763 248.927054 
L 212.233985 225.935177 
L 212.900773 251.911228 
L 213.568154 233.117037 
L 214.495175 237.856608 
L 215.1646 250.350452 
L 215.360584 228.488134 
L 217.177273 234.467929 
L 217.886046 247.095335 
L 237.714617 243.741001 
L 239.499941 248.118044 
L 240.916536 224.809433 
L 241.292428 223.469989 
L 242.705715 248.217262 
L 244.501944 218.841085 
L 246.305189 233.811564 
L 247.718124 231.312032 
L 248.115413 227.446344 
L 249.524743 231.930237 
L 251.338234 222.12673 
L 253.15857 219.688256 
L 254.566404 222.508338 
L 254.98572 244.382103 
L 256.389654 231.105964 
L 258.219616 245.22164 
L 260.056261 247.457862 
L 261.89956 231.380721 
L 263.296819 235.26549 
L 263.749486 211.8195 
L 265.142507 250.052797 
L 266.994723 233.624576 
L 268.8535 234.757951 
L 270.242922 213.906894 
L 270.718755 237.051415 
L 272.103697 235.07087 
L 273.970869 217.539802 
L 275.844395 221.691697 
L 277.225127 217.467297 
L 277.716892 248.991926 
L 279.100325 231.727985 
L 280.974164 212.216372 
L 282.852374 236.501899 
L 284.233113 217.440583 
L 284.736635 233.716162 
L 286.11276 227.030391 
L 287.998393 237.627643 
L 289.889991 257.364404 
L 291.261468 251.831088 
L 291.787533 219.600484 
L 293.154308 245.774971 
L 295.05304 238.100837 
L 296.957646 221.191791 
L 298.868109 225.740556 
L 300.225484 242.49696 
L 300.784415 228.671305 
L 302.137035 225.187225 
L 304.054396 241.062114 
L 305.977554 231.300584 
L 307.325805 221.237583 
L 307.9065 225.958073 
L 309.250046 228.419444 
L 311.180061 219.566141 
L 313.115846 222.577027 
L 314.45564 242.733557 
L 315.0574 229.18266 
L 318.48596 240.241657 
L 319.136402 249.373535 
L 319.787259 227.015126 
L 320.438524 208.514776 
L 321.09019 230.132863 
L 321.74225 219.154004 
L 322.394699 254.80763 
L 323.047529 249.92305 
L 323.700735 249.419327 
L 324.354309 250.396244 
L 325.008245 223.38222 
L 325.672062 243.084636 
L 326.343379 239.554763 
L 327.015108 242.138248 
L 327.682099 242.890016 
L 328.347783 241.230021 
L 329.013835 239.928739 
L 329.680249 243.199118 
L 330.347018 253.754393 
L 331.014137 239.493706 
L 331.689541 239.215132 
L 332.367194 241.935996 
L 333.045218 236.162268 
L 333.723606 260.127245 
L 334.402353 243.347945 
L 335.081453 245.931431 
L 335.760898 261.012575 
L 336.440683 243.340313 
L 337.123493 237.887136 
L 337.811795 256.921739 
L 338.500359 234.815193 
L 339.189236 255.887582 
L 339.878472 250.850357 
L 340.56806 221.424571 
L 341.257823 220.894137 
L 341.946493 235.360892 
L 342.635515 252.239411 
L 343.324885 244.782792 
L 344.013207 224.530859 
L 344.714197 242.764085 
L 345.415575 240.165335 
L 346.117338 259.551018 
L 347.170377 237.856608 
L 347.875169 235.124295 
L 348.580325 253.716232 
L 349.285839 232.987291 
L 349.99171 239.711222 
L 350.695573 236.852979 
L 351.399207 216.158383 
L 352.103187 256.639348 
L 352.807511 251.468562 
L 353.512176 233.353634 
L 354.21718 250.606128 
L 354.922522 252.758396 
L 355.6282 234.01 
L 356.334211 251.19762 
L 357.050989 251.422768 
L 357.77401 266.79012 
L 358.497427 229.663486 
L 359.221238 218.364076 
L 359.945445 247.835654 
L 360.669099 244.79424 
L 361.392785 247.442598 
L 362.116868 266.061247 
L 362.841347 229.018568 
L 363.566223 247.041911 
L 364.291499 243.798242 
L 365.017175 245.43534 
L 365.743253 233.334554 
L 366.469735 254.441287 
L 367.196624 247.740252 
L 367.923923 268.73632 
L 369.384159 232.136305 
L 370.127621 234.773216 
L 370.871602 249.705532 
L 371.616263 252.651548 
L 372.361419 236.479003 
L 373.107076 229.87337 
L 373.853239 235.463926 
L 374.599916 242.97397 
L 375.347114 245.332306 
L 376.094841 239.726486 
L 376.843106 263.531188 
L 378.34129 228.011124 
L 379.091229 248.537813 
L 379.841749 248.526364 
L 380.592863 249.842913 
L 381.344584 243.172406 
L 381.501945 257.265186 
L 382.345932 235.841718 
L 383.189942 254.284827 
L 384.033973 217.490193 
L 384.878022 249.434593 
L 385.722089 228.965143 
L 386.566171 254.105472 
L 387.410267 251.61739 
L 388.254378 231.697456 
L 389.098384 224.385849 
L 389.943434 242.157329 
L 390.790108 234.338183 
L 391.636793 251.972284 
L 392.483489 255.578478 
L 393.330196 240.955264 
L 394.176917 234.704526 
L 395.023651 258.009321 
L 395.870402 234.441217 
L 396.71717 230.560264 
L 397.563958 249.881073 
L 398.414214 229.953508 
L 399.265173 239.989796 
L 400.116173 272.147895 
L 400.96722 176.814607 
L 401.818316 234.822825 
L 402.669466 214.41825 
L 403.520676 269.335443 
L 404.37195 248.617952 
L 405.657911 248.469124 
L 406.511415 256.776728 
L 407.36501 238.333617 
L 408.218703 222.615187 
L 409.0725 259.482328 
L 409.924791 246.839657 
L 410.78446 241.210941 
L 411.644281 240.172967 
L 412.504264 243.042659 
L 413.364419 227.850848 
L 414.224755 238.635087 
L 415.085284 239.749383 
L 415.946015 241.146068 
L 416.806961 241.203309 
L 417.668132 241.665055 
L 418.529081 246.064994 
L 419.389501 246.473314 
L 420.250155 241.928364 
L 421.116551 244.240908 
L 421.987739 237.143001 
L 422.859245 240.87131 
L 423.729685 258.39093 
L 424.600319 250.2436 
L 426.342777 253.651359 
L 427.214636 251.61739 
L 428.086939 230.380909 
L 428.959705 251.804377 
L 429.832955 251.80056 
L 429.832955 251.80056 
" clip-path="url(#p049af458de)" style="fill: none; stroke: #1f77b4; stroke-width: 2; stroke-linecap: square"/>
   </g>
   <g id="patch_3">
    <path d="M 81.925 289.23 
L 81.925 7.2 
" style="fill: none; stroke: #000000; stroke-width: 0.8; stroke-linejoin: miter; stroke-linecap: square"/>
   </g>
   <g id="patch_4">
    <path d="M 446.4 289.23 
L 446.4 7.2 
" style="fill: none; stroke: #000000; stroke-width: 0.8; stroke-linejoin: miter; stroke-linecap: square"/>
   </g>
   <g id="patch_5">
    <path d="M 81.925 289.23 
L 446.4 289.23 
" style="fill: none; stroke: #000000; stroke-width: 0.8; stroke-linejoin: miter; stroke-linecap: square"/>
   </g>
   <g id="patch_6">
    <path d="M 81.925 7.2 
L 446.4 7.2 
" style="fill: none; stroke: #000000; stroke-width: 0.8; stroke-linejoin: miter; stroke-linecap: square"/>
   </g>
   <g id="text_12">
    <g clip-path="url(#p049af458de)">
     <!-- MAST-U 44697  -->
     <g transform="translate(342.314 26.189175)scale(0.12 -0.12)">
      <defs>
       <path id="DejaVuSans-41" d="M 2188 4044 
L 1331 1722 
L 3047 1722 
L 2188 4044 
z
M 1831 4666 
L 2547 4666 
L 4325 0 
L 3669 0 
L 3244 1197 
L 1141 1197 
L 716 0 
L 50 0 
L 1831 4666 
z
" transform="scale(0.015625)"/>
       <path id="DejaVuSans-53" d="M 3425 4513 
L 3425 3897 
Q 3066 4069 2747 4153 
Q 2428 4238 2131 4238 
Q 1616 4238 1336 4038 
Q 1056 3838 1056 3469 
Q 1056 3159 1242 3001 
Q 1428 2844 1947 2747 
L 2328 2669 
Q 3034 2534 3370 2195 
Q 3706 1856 3706 1288 
Q 3706 609 3251 259 
Q 2797 -91 1919 -91 
Q 1588 -91 1214 -16 
Q 841 59 441 206 
L 441 856 
Q 825 641 1194 531 
Q 1563 422 1919 422 
Q 2459 422 2753 634 
Q 3047 847 3047 1241 
Q 3047 1584 2836 1778 
Q 2625 1972 2144 2069 
L 1759 2144 
Q 1053 2284 737 2584 
Q 422 2884 422 3419 
Q 422 4038 858 4394 
Q 1294 4750 2059 4750 
Q 2388 4750 2728 4690 
Q 3069 4631 3425 4513 
z
" transform="scale(0.015625)"/>
       <path id="DejaVuSans-54" d="M -19 4666 
L 3928 4666 
L 3928 4134 
L 2272 4134 
L 2272 0 
L 1638 0 
L 1638 4134 
L -19 4134 
L -19 4666 
z
" transform="scale(0.015625)"/>
       <path id="DejaVuSans-2d" d="M 313 2009 
L 1997 2009 
L 1997 1497 
L 313 1497 
L 313 2009 
z
" transform="scale(0.015625)"/>
       <path id="DejaVuSans-55" d="M 556 4666 
L 1191 4666 
L 1191 1831 
Q 1191 1081 1462 751 
Q 1734 422 2344 422 
Q 2950 422 3222 751 
Q 3494 1081 3494 1831 
L 3494 4666 
L 4128 4666 
L 4128 1753 
Q 4128 841 3676 375 
Q 3225 -91 2344 -91 
Q 1459 -91 1007 375 
Q 556 841 556 1753 
L 556 4666 
z
" transform="scale(0.015625)"/>
       <path id="DejaVuSans-39" d="M 703 97 
L 703 672 
Q 941 559 1184 500 
Q 1428 441 1663 441 
Q 2288 441 2617 861 
Q 2947 1281 2994 2138 
Q 2813 1869 2534 1725 
Q 2256 1581 1919 1581 
Q 1219 1581 811 2004 
Q 403 2428 403 3163 
Q 403 3881 828 4315 
Q 1253 4750 1959 4750 
Q 2769 4750 3195 4129 
Q 3622 3509 3622 2328 
Q 3622 1225 3098 567 
Q 2575 -91 1691 -91 
Q 1453 -91 1209 -44 
Q 966 3 703 97 
z
M 1959 2075 
Q 2384 2075 2632 2365 
Q 2881 2656 2881 3163 
Q 2881 3666 2632 3958 
Q 2384 4250 1959 4250 
Q 1534 4250 1286 3958 
Q 1038 3666 1038 3163 
Q 1038 2656 1286 2365 
Q 1534 2075 1959 2075 
z
" transform="scale(0.015625)"/>
       <path id="DejaVuSans-37" d="M 525 4666 
L 3525 4666 
L 3525 4397 
L 1831 0 
L 1172 0 
L 2766 4134 
L 525 4134 
L 525 4666 
z
" transform="scale(0.015625)"/>
      </defs>
      <use xlink:href="#DejaVuSans-4d"/>
      <use xlink:href="#DejaVuSans-41" x="86.279297"/>
      <use xlink:href="#DejaVuSans-53" x="154.6875"/>
      <use xlink:href="#DejaVuSans-54" x="218.164062"/>
      <use xlink:href="#DejaVuSans-2d" x="270.123047"/>
      <use xlink:href="#DejaVuSans-55" x="306.207031"/>
      <use xlink:href="#DejaVuSans-20" x="379.400391"/>
      <use xlink:href="#DejaVuSans-34" x="411.1875"/>
      <use xlink:href="#DejaVuSans-34" x="474.810547"/>
      <use xlink:href="#DejaVuSans-36" x="538.433594"/>
      <use xlink:href="#DejaVuSans-39" x="602.056641"/>
      <use xlink:href="#DejaVuSans-37" x="665.679688"/>
      <use xlink:href="#DejaVuSans-20" x="729.302734"/>
     </g>
    </g>
   </g>
   <g id="legend_1">
    <g id="patch_7">
     <path d="M 283.68 158.821875 
L 440.4 158.821875 
L 440.4 137.608125 
L 283.68 137.608125 
L 283.68 158.821875 
z
" style="fill: none; opacity: 0"/>
    </g>
    <g id="line2d_11">
     <path d="M 288.48 147.32625 
L 300.48 147.32625 
L 312.48 147.32625 
" style="fill: none; stroke: #1f77b4; stroke-width: 2; stroke-linecap: square"/>
    </g>
    <g id="text_13">
     <!-- 44697, $t=0.575$ s) -->
     <g transform="translate(322.08 151.52625)scale(0.12 -0.12)">
      <defs>
       <path id="DejaVuSans-2c" d="M 750 794 
L 1409 794 
L 1409 256 
L 897 -744 
L 494 -744 
L 750 256 
L 750 794 
z
" transform="scale(0.015625)"/>
       <path id="DejaVuSans-Oblique-74" d="M 2706 3500 
L 2619 3053 
L 1472 3053 
L 1100 1153 
Q 1081 1047 1072 975 
Q 1063 903 1063 863 
Q 1063 663 1183 572 
Q 1303 481 1569 481 
L 2150 481 
L 2053 0 
L 1503 0 
Q 991 0 739 200 
Q 488 400 488 806 
Q 488 878 497 964 
Q 506 1050 525 1153 
L 897 3053 
L 409 3053 
L 500 3500 
L 978 3500 
L 1172 4494 
L 1747 4494 
L 1556 3500 
L 2706 3500 
z
" transform="scale(0.015625)"/>
       <path id="DejaVuSans-3d" d="M 678 2906 
L 4684 2906 
L 4684 2381 
L 678 2381 
L 678 2906 
z
M 678 1631 
L 4684 1631 
L 4684 1100 
L 678 1100 
L 678 1631 
z
" transform="scale(0.015625)"/>
       <path id="DejaVuSans-35" d="M 691 4666 
L 3169 4666 
L 3169 4134 
L 1269 4134 
L 1269 2991 
Q 1406 3038 1543 3061 
Q 1681 3084 1819 3084 
Q 2600 3084 3056 2656 
Q 3513 2228 3513 1497 
Q 3513 744 3044 326 
Q 2575 -91 1722 -91 
Q 1428 -91 1123 -41 
Q 819 9 494 109 
L 494 744 
Q 775 591 1075 516 
Q 1375 441 1709 441 
Q 2250 441 2565 725 
Q 2881 1009 2881 1497 
Q 2881 1984 2565 2268 
Q 2250 2553 1709 2553 
Q 1456 2553 1204 2497 
Q 953 2441 691 2322 
L 691 4666 
z
" transform="scale(0.015625)"/>
       <path id="DejaVuSans-73" d="M 2834 3397 
L 2834 2853 
Q 2591 2978 2328 3040 
Q 2066 3103 1784 3103 
Q 1356 3103 1142 2972 
Q 928 2841 928 2578 
Q 928 2378 1081 2264 
Q 1234 2150 1697 2047 
L 1894 2003 
Q 2506 1872 2764 1633 
Q 3022 1394 3022 966 
Q 3022 478 2636 193 
Q 2250 -91 1575 -91 
Q 1294 -91 989 -36 
Q 684 19 347 128 
L 347 722 
Q 666 556 975 473 
Q 1284 391 1588 391 
Q 1994 391 2212 530 
Q 2431 669 2431 922 
Q 2431 1156 2273 1281 
Q 2116 1406 1581 1522 
L 1381 1569 
Q 847 1681 609 1914 
Q 372 2147 372 2553 
Q 372 3047 722 3315 
Q 1072 3584 1716 3584 
Q 2034 3584 2315 3537 
Q 2597 3491 2834 3397 
z
" transform="scale(0.015625)"/>
       <path id="DejaVuSans-29" d="M 513 4856 
L 1013 4856 
Q 1481 4119 1714 3412 
Q 1947 2706 1947 2009 
Q 1947 1309 1714 600 
Q 1481 -109 1013 -844 
L 513 -844 
Q 928 -128 1133 580 
Q 1338 1288 1338 2009 
Q 1338 2731 1133 3434 
Q 928 4138 513 4856 
z
" transform="scale(0.015625)"/>
      </defs>
      <use xlink:href="#DejaVuSans-34" transform="translate(0 0.125)"/>
      <use xlink:href="#DejaVuSans-34" transform="translate(63.623047 0.125)"/>
      <use xlink:href="#DejaVuSans-36" transform="translate(127.246094 0.125)"/>
      <use xlink:href="#DejaVuSans-39" transform="translate(190.869141 0.125)"/>
      <use xlink:href="#DejaVuSans-37" transform="translate(254.492188 0.125)"/>
      <use xlink:href="#DejaVuSans-2c" transform="translate(318.115234 0.125)"/>
      <use xlink:href="#DejaVuSans-20" transform="translate(349.902344 0.125)"/>
      <use xlink:href="#DejaVuSans-Oblique-74" transform="translate(381.689453 0.125)"/>
      <use xlink:href="#DejaVuSans-3d" transform="translate(440.380859 0.125)"/>
      <use xlink:href="#DejaVuSans-30" transform="translate(543.652344 0.125)"/>
      <use xlink:href="#DejaVuSans-2e" transform="translate(607.275391 0.125)"/>
      <use xlink:href="#DejaVuSans-35" transform="translate(639.0625 0.125)"/>
      <use xlink:href="#DejaVuSans-37" transform="translate(695.435547 0.125)"/>
      <use xlink:href="#DejaVuSans-35" transform="translate(759.058594 0.125)"/>
      <use xlink:href="#DejaVuSans-20" transform="translate(822.681641 0.125)"/>
      <use xlink:href="#DejaVuSans-73" transform="translate(854.46875 0.125)"/>
      <use xlink:href="#DejaVuSans-29" transform="translate(906.568359 0.125)"/>
     </g>
    </g>
   </g>
  </g>
 </g>
 <defs>
  <clipPath id="p049af458de">
   <rect x="81.925" y="7.2" width="364.475" height="282.03"/>
  </clipPath>
 </defs>
</svg>
