<?xml version="1.0" encoding="utf-8" standalone="no"?>
<!DOCTYPE svg PUBLIC "-//W3C//DTD SVG 1.1//EN"
  "http://www.w3.org/Graphics/SVG/1.1/DTD/svg11.dtd">
<svg xmlns:xlink="http://www.w3.org/1999/xlink" width="453.6pt" height="338.4pt" viewBox="0 0 453.6 338.4" xmlns="http://www.w3.org/2000/svg" version="1.1">
 <metadata>
  <rdf:RDF xmlns:dc="http://purl.org/dc/elements/1.1/" xmlns:cc="http://creativecommons.org/ns#" xmlns:rdf="http://www.w3.org/1999/02/22-rdf-syntax-ns#">
   <cc:Work>
    <dc:type rdf:resource="http://purl.org/dc/dcmitype/StillImage"/>
    <dc:date>2022-02-07T10:00:19.484800</dc:date>
    <dc:format>image/svg+xml</dc:format>
    <dc:creator>
     <cc:Agent>
      <dc:title>Matplotlib v3.5.1, https://matplotlib.org/</dc:title>
     </cc:Agent>
    </dc:creator>
   </cc:Work>
  </rdf:RDF>
 </metadata>
 <defs>
  <style type="text/css">*{stroke-linejoin: round; stroke-linecap: butt}</style>
 </defs>
 <g id="figure_1">
  <g id="patch_1">
   <path d="M 0 338.4 
L 453.6 338.4 
L 453.6 0 
L 0 0 
L 0 338.4 
z
" style="fill: none"/>
  </g>
  <g id="axes_1">
   <g id="patch_2">
    <path d="M 71.745 289.23 
L 446.4 289.23 
L 446.4 7.2 
L 71.745 7.2 
L 71.745 289.23 
z
" style="fill: none"/>
   </g>
   <g id="matplotlib.axis_1">
    <g id="xtick_1">
     <g id="line2d_1">
      <defs>
       <path id="m0e9120102d" d="M 0 0 
L 0 3.5 
" style="stroke: #000000; stroke-width: 0.8"/>
      </defs>
      <g>
       <use xlink:href="#m0e9120102d" x="121.181473" y="289.23" style="stroke: #000000; stroke-width: 0.8"/>
      </g>
     </g>
     <g id="text_1">
      <!-- 0.8 -->
      <g transform="translate(108.458973 308.3875)scale(0.16 -0.16)">
       <defs>
        <path id="DejaVuSans-30" d="M 2034 4250 
Q 1547 4250 1301 3770 
Q 1056 3291 1056 2328 
Q 1056 1369 1301 889 
Q 1547 409 2034 409 
Q 2525 409 2770 889 
Q 3016 1369 3016 2328 
Q 3016 3291 2770 3770 
Q 2525 4250 2034 4250 
z
M 2034 4750 
Q 2819 4750 3233 4129 
Q 3647 3509 3647 2328 
Q 3647 1150 3233 529 
Q 2819 -91 2034 -91 
Q 1250 -91 836 529 
Q 422 1150 422 2328 
Q 422 3509 836 4129 
Q 1250 4750 2034 4750 
z
" transform="scale(0.015625)"/>
        <path id="DejaVuSans-2e" d="M 684 794 
L 1344 794 
L 1344 0 
L 684 0 
L 684 794 
z
" transform="scale(0.015625)"/>
        <path id="DejaVuSans-38" d="M 2034 2216 
Q 1584 2216 1326 1975 
Q 1069 1734 1069 1313 
Q 1069 891 1326 650 
Q 1584 409 2034 409 
Q 2484 409 2743 651 
Q 3003 894 3003 1313 
Q 3003 1734 2745 1975 
Q 2488 2216 2034 2216 
z
M 1403 2484 
Q 997 2584 770 2862 
Q 544 3141 544 3541 
Q 544 4100 942 4425 
Q 1341 4750 2034 4750 
Q 2731 4750 3128 4425 
Q 3525 4100 3525 3541 
Q 3525 3141 3298 2862 
Q 3072 2584 2669 2484 
Q 3125 2378 3379 2068 
Q 3634 1759 3634 1313 
Q 3634 634 3220 271 
Q 2806 -91 2034 -91 
Q 1263 -91 848 271 
Q 434 634 434 1313 
Q 434 1759 690 2068 
Q 947 2378 1403 2484 
z
M 1172 3481 
Q 1172 3119 1398 2916 
Q 1625 2713 2034 2713 
Q 2441 2713 2670 2916 
Q 2900 3119 2900 3481 
Q 2900 3844 2670 4047 
Q 2441 4250 2034 4250 
Q 1625 4250 1398 4047 
Q 1172 3844 1172 3481 
z
" transform="scale(0.015625)"/>
       </defs>
       <use xlink:href="#DejaVuSans-30"/>
       <use xlink:href="#DejaVuSans-2e" x="63.623047"/>
       <use xlink:href="#DejaVuSans-38" x="95.410156"/>
      </g>
     </g>
    </g>
    <g id="xtick_2">
     <g id="line2d_2">
      <g>
       <use xlink:href="#m0e9120102d" x="187.565597" y="289.23" style="stroke: #000000; stroke-width: 0.8"/>
      </g>
     </g>
     <g id="text_2">
      <!-- 1.0 -->
      <g transform="translate(174.843097 308.3875)scale(0.16 -0.16)">
       <defs>
        <path id="DejaVuSans-31" d="M 794 531 
L 1825 531 
L 1825 4091 
L 703 3866 
L 703 4441 
L 1819 4666 
L 2450 4666 
L 2450 531 
L 3481 531 
L 3481 0 
L 794 0 
L 794 531 
z
" transform="scale(0.015625)"/>
       </defs>
       <use xlink:href="#DejaVuSans-31"/>
       <use xlink:href="#DejaVuSans-2e" x="63.623047"/>
       <use xlink:href="#DejaVuSans-30" x="95.410156"/>
      </g>
     </g>
    </g>
    <g id="xtick_3">
     <g id="line2d_3">
      <g>
       <use xlink:href="#m0e9120102d" x="253.949722" y="289.23" style="stroke: #000000; stroke-width: 0.8"/>
      </g>
     </g>
     <g id="text_3">
      <!-- 1.2 -->
      <g transform="translate(241.227222 308.3875)scale(0.16 -0.16)">
       <defs>
        <path id="DejaVuSans-32" d="M 1228 531 
L 3431 531 
L 3431 0 
L 469 0 
L 469 531 
Q 828 903 1448 1529 
Q 2069 2156 2228 2338 
Q 2531 2678 2651 2914 
Q 2772 3150 2772 3378 
Q 2772 3750 2511 3984 
Q 2250 4219 1831 4219 
Q 1534 4219 1204 4116 
Q 875 4013 500 3803 
L 500 4441 
Q 881 4594 1212 4672 
Q 1544 4750 1819 4750 
Q 2544 4750 2975 4387 
Q 3406 4025 3406 3419 
Q 3406 3131 3298 2873 
Q 3191 2616 2906 2266 
Q 2828 2175 2409 1742 
Q 1991 1309 1228 531 
z
" transform="scale(0.015625)"/>
       </defs>
       <use xlink:href="#DejaVuSans-31"/>
       <use xlink:href="#DejaVuSans-2e" x="63.623047"/>
       <use xlink:href="#DejaVuSans-32" x="95.410156"/>
      </g>
     </g>
    </g>
    <g id="xtick_4">
     <g id="line2d_4">
      <g>
       <use xlink:href="#m0e9120102d" x="320.333846" y="289.23" style="stroke: #000000; stroke-width: 0.8"/>
      </g>
     </g>
     <g id="text_4">
      <!-- 1.4 -->
      <g transform="translate(307.611346 308.3875)scale(0.16 -0.16)">
       <defs>
        <path id="DejaVuSans-34" d="M 2419 4116 
L 825 1625 
L 2419 1625 
L 2419 4116 
z
M 2253 4666 
L 3047 4666 
L 3047 1625 
L 3713 1625 
L 3713 1100 
L 3047 1100 
L 3047 0 
L 2419 0 
L 2419 1100 
L 313 1100 
L 313 1709 
L 2253 4666 
z
" transform="scale(0.015625)"/>
       </defs>
       <use xlink:href="#DejaVuSans-31"/>
       <use xlink:href="#DejaVuSans-2e" x="63.623047"/>
       <use xlink:href="#DejaVuSans-34" x="95.410156"/>
      </g>
     </g>
    </g>
    <g id="xtick_5">
     <g id="line2d_5">
      <g>
       <use xlink:href="#m0e9120102d" x="386.717971" y="289.23" style="stroke: #000000; stroke-width: 0.8"/>
      </g>
     </g>
     <g id="text_5">
      <!-- 1.6 -->
      <g transform="translate(373.995471 308.3875)scale(0.16 -0.16)">
       <defs>
        <path id="DejaVuSans-36" d="M 2113 2584 
Q 1688 2584 1439 2293 
Q 1191 2003 1191 1497 
Q 1191 994 1439 701 
Q 1688 409 2113 409 
Q 2538 409 2786 701 
Q 3034 994 3034 1497 
Q 3034 2003 2786 2293 
Q 2538 2584 2113 2584 
z
M 3366 4563 
L 3366 3988 
Q 3128 4100 2886 4159 
Q 2644 4219 2406 4219 
Q 1781 4219 1451 3797 
Q 1122 3375 1075 2522 
Q 1259 2794 1537 2939 
Q 1816 3084 2150 3084 
Q 2853 3084 3261 2657 
Q 3669 2231 3669 1497 
Q 3669 778 3244 343 
Q 2819 -91 2113 -91 
Q 1303 -91 875 529 
Q 447 1150 447 2328 
Q 447 3434 972 4092 
Q 1497 4750 2381 4750 
Q 2619 4750 2861 4703 
Q 3103 4656 3366 4563 
z
" transform="scale(0.015625)"/>
       </defs>
       <use xlink:href="#DejaVuSans-31"/>
       <use xlink:href="#DejaVuSans-2e" x="63.623047"/>
       <use xlink:href="#DejaVuSans-36" x="95.410156"/>
      </g>
     </g>
    </g>
    <g id="text_6">
     <!-- $R$ [m] -->
     <g transform="translate(236.9125 327.8725)scale(0.16 -0.16)">
      <defs>
       <path id="DejaVuSans-Oblique-52" d="M 1613 4147 
L 1294 2491 
L 2106 2491 
Q 2584 2491 2879 2755 
Q 3175 3019 3175 3444 
Q 3175 3784 2976 3965 
Q 2778 4147 2406 4147 
L 1613 4147 
z
M 2772 2241 
Q 2972 2194 3105 2009 
Q 3238 1825 3413 1275 
L 3809 0 
L 3144 0 
L 2778 1197 
Q 2638 1659 2453 1815 
Q 2269 1972 1888 1972 
L 1191 1972 
L 806 0 
L 172 0 
L 1081 4666 
L 2503 4666 
Q 3150 4666 3495 4373 
Q 3841 4081 3841 3531 
Q 3841 3044 3547 2687 
Q 3253 2331 2772 2241 
z
" transform="scale(0.015625)"/>
       <path id="DejaVuSans-20" transform="scale(0.015625)"/>
       <path id="DejaVuSans-5b" d="M 550 4863 
L 1875 4863 
L 1875 4416 
L 1125 4416 
L 1125 -397 
L 1875 -397 
L 1875 -844 
L 550 -844 
L 550 4863 
z
" transform="scale(0.015625)"/>
       <path id="DejaVuSans-6d" d="M 3328 2828 
Q 3544 3216 3844 3400 
Q 4144 3584 4550 3584 
Q 5097 3584 5394 3201 
Q 5691 2819 5691 2113 
L 5691 0 
L 5113 0 
L 5113 2094 
Q 5113 2597 4934 2840 
Q 4756 3084 4391 3084 
Q 3944 3084 3684 2787 
Q 3425 2491 3425 1978 
L 3425 0 
L 2847 0 
L 2847 2094 
Q 2847 2600 2669 2842 
Q 2491 3084 2119 3084 
Q 1678 3084 1418 2786 
Q 1159 2488 1159 1978 
L 1159 0 
L 581 0 
L 581 3500 
L 1159 3500 
L 1159 2956 
Q 1356 3278 1631 3431 
Q 1906 3584 2284 3584 
Q 2666 3584 2933 3390 
Q 3200 3197 3328 2828 
z
" transform="scale(0.015625)"/>
       <path id="DejaVuSans-5d" d="M 1947 4863 
L 1947 -844 
L 622 -844 
L 622 -397 
L 1369 -397 
L 1369 4416 
L 622 4416 
L 622 4863 
L 1947 4863 
z
" transform="scale(0.015625)"/>
      </defs>
      <use xlink:href="#DejaVuSans-Oblique-52" transform="translate(0 0.015625)"/>
      <use xlink:href="#DejaVuSans-20" transform="translate(69.482422 0.015625)"/>
      <use xlink:href="#DejaVuSans-5b" transform="translate(101.269531 0.015625)"/>
      <use xlink:href="#DejaVuSans-6d" transform="translate(140.283203 0.015625)"/>
      <use xlink:href="#DejaVuSans-5d" transform="translate(237.695312 0.015625)"/>
     </g>
    </g>
   </g>
   <g id="matplotlib.axis_2">
    <g id="ytick_1">
     <g id="line2d_6">
      <defs>
       <path id="m13944fa00b" d="M 0 0 
L -3.5 0 
" style="stroke: #000000; stroke-width: 0.8"/>
      </defs>
      <g>
       <use xlink:href="#m13944fa00b" x="71.745" y="247.698471" style="stroke: #000000; stroke-width: 0.8"/>
      </g>
     </g>
     <g id="text_7">
      <!-- 0.00 -->
      <g transform="translate(29.12 253.777221)scale(0.16 -0.16)">
       <use xlink:href="#DejaVuSans-30"/>
       <use xlink:href="#DejaVuSans-2e" x="63.623047"/>
       <use xlink:href="#DejaVuSans-30" x="95.410156"/>
       <use xlink:href="#DejaVuSans-30" x="159.033203"/>
      </g>
     </g>
    </g>
    <g id="ytick_2">
     <g id="line2d_7">
      <g>
       <use xlink:href="#m13944fa00b" x="71.745" y="183.11145" style="stroke: #000000; stroke-width: 0.8"/>
      </g>
     </g>
     <g id="text_8">
      <!-- 0.02 -->
      <g transform="translate(29.12 189.1902)scale(0.16 -0.16)">
       <use xlink:href="#DejaVuSans-30"/>
       <use xlink:href="#DejaVuSans-2e" x="63.623047"/>
       <use xlink:href="#DejaVuSans-30" x="95.410156"/>
       <use xlink:href="#DejaVuSans-32" x="159.033203"/>
      </g>
     </g>
    </g>
    <g id="ytick_3">
     <g id="line2d_8">
      <g>
       <use xlink:href="#m13944fa00b" x="71.745" y="118.524429" style="stroke: #000000; stroke-width: 0.8"/>
      </g>
     </g>
     <g id="text_9">
      <!-- 0.04 -->
      <g transform="translate(29.12 124.603179)scale(0.16 -0.16)">
       <use xlink:href="#DejaVuSans-30"/>
       <use xlink:href="#DejaVuSans-2e" x="63.623047"/>
       <use xlink:href="#DejaVuSans-30" x="95.410156"/>
       <use xlink:href="#DejaVuSans-34" x="159.033203"/>
      </g>
     </g>
    </g>
    <g id="ytick_4">
     <g id="line2d_9">
      <g>
       <use xlink:href="#m13944fa00b" x="71.745" y="53.937408" style="stroke: #000000; stroke-width: 0.8"/>
      </g>
     </g>
     <g id="text_10">
      <!-- 0.06 -->
      <g transform="translate(29.12 60.016158)scale(0.16 -0.16)">
       <use xlink:href="#DejaVuSans-30"/>
       <use xlink:href="#DejaVuSans-2e" x="63.623047"/>
       <use xlink:href="#DejaVuSans-30" x="95.410156"/>
       <use xlink:href="#DejaVuSans-36" x="159.033203"/>
      </g>
     </g>
    </g>
    <g id="text_11">
     <!-- $q_\perp$ [MWm$^{-2}$] -->
     <g transform="translate(21.76 199.575)rotate(-90)scale(0.16 -0.16)">
      <defs>
       <path id="DejaVuSans-Oblique-71" d="M 2669 525 
Q 2438 222 2123 65 
Q 1809 -91 1428 -91 
Q 897 -91 595 267 
Q 294 625 294 1253 
Q 294 1759 480 2231 
Q 666 2703 1013 3078 
Q 1238 3322 1530 3453 
Q 1822 3584 2144 3584 
Q 2531 3584 2781 3431 
Q 3031 3278 3144 2969 
L 3244 3494 
L 3822 3494 
L 2888 -1319 
L 2309 -1319 
L 2669 525 
z
M 891 1338 
Q 891 875 1084 633 
Q 1278 391 1644 391 
Q 2188 391 2572 911 
Q 2956 1431 2956 2175 
Q 2956 2625 2757 2864 
Q 2559 3103 2188 3103 
Q 1916 3103 1684 2976 
Q 1453 2850 1281 2606 
Q 1100 2350 995 2006 
Q 891 1663 891 1338 
z
" transform="scale(0.015625)"/>
       <path id="STIXGeneral-Regular-27c2" d="M 4102 0 
L 333 0 
L 333 422 
L 2010 422 
L 2010 4237 
L 2432 4237 
L 2432 422 
L 4102 422 
L 4102 0 
z
" transform="scale(0.015625)"/>
       <path id="DejaVuSans-4d" d="M 628 4666 
L 1569 4666 
L 2759 1491 
L 3956 4666 
L 4897 4666 
L 4897 0 
L 4281 0 
L 4281 4097 
L 3078 897 
L 2444 897 
L 1241 4097 
L 1241 0 
L 628 0 
L 628 4666 
z
" transform="scale(0.015625)"/>
       <path id="DejaVuSans-57" d="M 213 4666 
L 850 4666 
L 1831 722 
L 2809 4666 
L 3519 4666 
L 4500 722 
L 5478 4666 
L 6119 4666 
L 4947 0 
L 4153 0 
L 3169 4050 
L 2175 0 
L 1381 0 
L 213 4666 
z
" transform="scale(0.015625)"/>
       <path id="DejaVuSans-2212" d="M 678 2272 
L 4684 2272 
L 4684 1741 
L 678 1741 
L 678 2272 
z
" transform="scale(0.015625)"/>
      </defs>
      <use xlink:href="#DejaVuSans-Oblique-71" transform="translate(0 0.765625)"/>
      <use xlink:href="#STIXGeneral-Regular-27c2" transform="translate(77.114258 -15.640625)scale(0.7)"/>
      <use xlink:href="#DejaVuSans-20" transform="translate(141.99632 0.765625)"/>
      <use xlink:href="#DejaVuSans-5b" transform="translate(173.783429 0.765625)"/>
      <use xlink:href="#DejaVuSans-4d" transform="translate(212.797101 0.765625)"/>
      <use xlink:href="#DejaVuSans-57" transform="translate(299.076398 0.765625)"/>
      <use xlink:href="#DejaVuSans-6d" transform="translate(397.953351 0.765625)"/>
      <use xlink:href="#DejaVuSans-2212" transform="translate(496.322491 39.046875)scale(0.7)"/>
      <use xlink:href="#DejaVuSans-32" transform="translate(554.974835 39.046875)scale(0.7)"/>
      <use xlink:href="#DejaVuSans-5d" transform="translate(602.245343 0.765625)"/>
     </g>
    </g>
   </g>
   <g id="line2d_10">
    <path d="M 88.774773 245.843235 
L 89.169905 245.84281 
L 89.569164 248.525427 
L 90.358903 245.680137 
L 90.753349 246.540222 
L 91.151911 245.342899 
L 91.554621 245.377302 
L 92.348341 244.915192 
L 92.746271 245.31614 
L 93.148336 247.049478 
L 93.55457 247.019746 
L 94.351866 244.460302 
L 94.753348 242.509926 
L 95.158984 245.115666 
L 95.568808 243.751847 
L 95.98285 247.359108 
L 96.774351 244.753368 
L 97.183617 244.394893 
L 97.597087 245.328033 
L 98.014792 245.995714 
L 98.809012 242.421157 
L 99.221956 243.860579 
L 99.639119 240.621136 
L 100.060533 240.382011 
L 100.486229 241.548754 
L 101.273679 237.135773 
L 101.694573 238.712808 
L 102.119732 237.574098 
L 102.549186 237.097122 
L 103.338418 231.636749 
L 103.763072 232.295086 
L 104.192001 227.728776 
L 104.625237 229.11638 
L 105.412712 224.908121 
L 105.844193 228.291549 
L 106.276909 229.684673 
L 106.713939 233.908649 
L 107.155313 223.842889 
L 107.937469 232.123069 
L 108.373976 232.401693 
L 108.814803 235.110644 
L 109.259981 234.062826 
L 110.033552 228.958803 
L 110.482679 232.047467 
L 110.927296 231.711076 
L 111.376267 234.092133 
L 112.139818 231.24387 
L 112.598997 227.984465 
L 113.050838 235.102149 
L 113.503581 236.425194 
L 113.960707 235.308145 
L 114.720119 235.313667 
L 115.184809 236.30287 
L 115.641293 235.125935 
L 116.102158 231.589604 
L 116.851544 232.589851 
L 117.322288 232.803916 
L 117.788733 237.343892 
L 118.253293 236.852476 
L 118.992599 236.932751 
L 119.467107 237.623367 
L 119.945193 237.370227 
L 120.413396 238.188263 
L 120.885993 235.285634 
L 121.620778 239.969595 
L 122.102824 237.433087 
L 122.58172 239.514281 
L 123.057888 239.733869 
L 123.782556 240.601598 
L 124.268197 235.445758 
L 124.757491 238.242629 
L 125.237159 237.789013 
L 125.721226 239.129047 
L 126.440814 239.064064 
L 126.933795 239.88932 
L 127.423005 241.142709 
L 127.91048 241.550453 
L 128.619878 243.657981 
L 129.116248 240.466109 
L 129.614611 244.67182 
L 130.105408 241.720347 
L 130.804577 244.435243 
L 131.807699 241.863057 
L 132.305185 242.667927 
L 132.80359 241.477824 
L 133.49693 241.463807 
L 134.003555 240.659362 
L 134.508985 240.230382 
L 135.010514 242.141257 
L 135.693524 240.850492 
L 136.203196 240.929918 
L 136.71599 240.253317 
L 137.220552 241.519447 
L 137.893206 242.419458 
L 138.405817 241.059886 
L 138.922187 241.542383 
L 139.432901 241.423882 
L 139.94474 239.887197 
L 140.610628 239.791206 
L 141.129806 242.574486 
L 141.646785 243.523765 
L 142.161456 240.774465 
L 142.816867 241.911901 
L 143.861461 244.207161 
L 144.378877 243.75482 
L 144.904006 245.154742 
L 145.548292 243.364915 
L 146.07622 245.55569 
L 147.124334 244.725761 
L 147.757752 245.57905 
L 148.288435 244.550771 
L 148.813081 244.710895 
L 149.344029 245.719637 
L 149.966495 247.354436 
L 150.499588 247.479308 
L 151.387171 242.833148 
L 151.757293 245.490281 
L 152.41918 245.513642 
L 152.788897 245.275791 
L 153.448388 248.305839 
L 153.81768 246.261172 
L 154.187722 246.807804 
L 154.843583 245.375603 
L 155.21317 246.772127 
L 155.866555 244.866348 
L 157.980757 246.731777 
L 158.631628 244.500652 
L 159.006016 246.894875 
L 159.381084 246.618798 
L 160.028081 248.58319 
L 160.402552 246.483308 
L 161.046922 246.254377 
L 161.420787 246.997236 
L 162.062515 249.152758 
L 162.435765 247.34849 
L 162.809671 246.810353 
L 163.44747 248.570024 
L 163.820748 246.92588 
L 163.947839 248.134672 
L 164.455887 246.287081 
L 164.828532 246.104446 
L 165.052197 246.490104 
L 165.601047 248.727175 
L 166.707352 248.646051 
L 167.262473 246.863869 
L 167.800991 247.210452 
L 168.355427 248.264216 
L 168.910785 248.221742 
L 169.468433 248.795982 
L 169.996684 248.531798 
L 170.552909 248.573846 
L 171.110009 249.857391 
L 171.670147 248.186065 
L 172.188213 246.192366 
L 172.746297 248.043354 
L 173.305158 248.482529 
L 173.867349 247.946515 
L 174.375752 246.279861 
L 174.935785 248.096446 
L 175.496453 249.244076 
L 176.060726 246.343995 
L 176.559565 247.544292 
L 177.12141 247.855197 
L 177.684203 247.574024 
L 178.250683 249.027886 
L 178.740002 247.522206 
L 179.303696 247.606728 
L 179.868809 247.118285 
L 180.437641 249.300565 
L 180.917504 247.756659 
L 181.483167 249.375743 
L 182.050763 247.145468 
L 182.622115 249.048698 
L 183.092608 249.292495 
L 183.66039 249.798778 
L 184.230653 251.052166 
L 184.804716 248.7276 
L 185.265943 249.111134 
L 186.409165 249.286124 
L 186.986155 247.410076 
L 187.438238 249.542239 
L 188.010838 247.06944 
L 188.587087 248.821041 
L 189.167246 247.390963 
L 189.610015 249.051247 
L 190.185692 249.347711 
L 191.348911 249.151909 
L 191.782298 247.964778 
L 192.361567 252.094887 
L 192.944852 249.110285 
L 193.532189 247.20578 
L 193.956383 248.794283 
L 194.539558 246.860047 
L 195.126832 247.300071 
L 195.718241 249.066112 
L 196.133461 249.116231 
L 196.720891 246.749616 
L 197.312511 249.30014 
L 197.908362 252.379458 
L 198.314856 247.78639 
L 198.906927 248.973945 
L 200.103994 248.725901 
L 200.502042 248.392485 
L 201.099181 248.892396 
L 201.700732 249.241103 
L 202.30674 251.027956 
L 202.696655 246.953488 
L 203.299339 249.244076 
L 203.906565 249.037655 
L 204.062616 247.415598 
L 204.746271 249.459416 
L 205.008761 249.320528 
L 205.693591 246.761508 
L 206.379003 249.652669 
L 207.065025 247.560857 
L 208.017938 248.088376 
L 208.70606 249.478954 
L 208.907518 247.045655 
L 210.774948 247.711213 
L 211.503517 249.116656 
L 231.885912 248.743315 
L 233.721101 249.230484 
L 235.177263 246.636212 
L 235.563654 246.487131 
L 237.016414 249.241527 
L 238.862814 245.971929 
L 240.716424 247.638158 
L 242.168823 247.359958 
L 242.577208 246.929703 
L 244.025902 247.428765 
L 245.890045 246.337624 
L 247.761223 246.06622 
L 249.208379 246.380098 
L 249.639407 248.81467 
L 251.082554 247.337022 
L 252.963628 248.908112 
L 254.851572 249.157005 
L 256.746355 247.367603 
L 258.18264 247.799982 
L 258.64795 245.190419 
L 260.079879 249.445824 
L 261.983828 247.617346 
L 263.894522 247.743492 
L 265.322752 245.422748 
L 265.811875 247.998757 
L 267.2355 247.77832 
L 269.154823 245.827095 
L 271.080678 246.289205 
L 272.499974 245.819025 
L 273.005474 249.327748 
L 274.427548 247.406254 
L 276.353724 245.234592 
L 278.284393 247.937595 
L 279.703697 245.816052 
L 280.221283 247.62754 
L 281.635844 246.883407 
L 283.574144 248.062892 
L 285.518575 250.259614 
L 286.928358 249.64375 
L 287.469116 246.056451 
L 288.874067 248.969698 
L 290.825831 248.115559 
L 292.783633 246.233565 
L 294.747457 246.739847 
L 296.142744 248.604852 
L 296.717287 247.066042 
L 298.107686 246.678261 
L 300.0786 248.445152 
L 302.055473 247.358684 
L 303.441381 246.238661 
L 304.038295 246.764057 
L 305.419367 247.03801 
L 307.403289 246.052628 
L 309.393142 246.387743 
L 310.770356 248.631185 
L 311.388925 247.122957 
L 314.913246 248.353834 
L 315.581856 249.370222 
L 316.250891 246.881708 
L 316.920346 244.8226 
L 317.590213 247.228715 
L 318.260486 246.006757 
L 318.931158 249.975042 
L 319.602223 249.431383 
L 320.273673 249.375318 
L 320.945501 249.48405 
L 321.617702 246.477362 
L 322.30006 248.670261 
L 322.990128 248.277382 
L 323.680618 248.564927 
L 324.366239 248.648599 
L 325.73517 248.319006 
L 326.420198 248.683003 
L 327.105591 249.857816 
L 327.791343 248.270587 
L 328.485611 248.239581 
L 329.182191 248.542416 
L 329.879152 247.899794 
L 330.576489 250.567121 
L 331.274194 248.699567 
L 331.972261 248.987112 
L 332.670683 250.665659 
L 333.369455 248.698718 
L 334.071336 248.091774 
L 334.778863 250.210345 
L 335.486658 247.749863 
L 336.194777 250.095242 
L 336.903263 249.534594 
L 337.612112 246.259473 
L 338.32114 246.200436 
L 339.737313 249.689197 
L 340.445937 248.859267 
L 341.153484 246.605206 
L 341.874053 248.634583 
L 342.595021 248.34534 
L 343.316384 250.502986 
L 344.398835 248.088376 
L 345.123313 247.784267 
L 345.848164 249.853568 
L 346.573384 247.546416 
L 347.29897 248.294796 
L 348.022492 247.976671 
L 348.745779 245.673341 
L 349.469422 250.178914 
L 350.193418 249.6034 
L 350.917765 247.58719 
L 351.64246 249.507411 
L 352.367503 249.74696 
L 353.09289 247.660245 
L 353.818621 249.573244 
L 354.555419 249.598303 
L 355.298634 251.308705 
L 356.042256 247.176473 
L 356.786285 245.918837 
L 357.530719 249.199054 
L 358.274585 248.860541 
L 359.018484 249.155306 
L 359.76279 251.227581 
L 360.507505 247.104693 
L 361.252628 249.110709 
L 361.998161 248.749686 
L 362.744105 248.931897 
L 363.490463 247.585067 
L 364.237236 249.934268 
L 364.984428 249.188436 
L 365.73204 251.525319 
L 367.233061 247.4517 
L 367.997288 247.745191 
L 368.76205 249.407173 
L 369.52751 249.735068 
L 370.293479 247.935047 
L 371.059962 247.199833 
L 371.826966 247.822068 
L 372.594498 248.657944 
L 373.362565 248.920429 
L 374.131177 248.296495 
L 374.900341 250.945983 
L 376.44037 246.992563 
L 377.211256 249.277205 
L 377.982738 249.275931 
L 378.754831 249.422464 
L 379.527548 248.68003 
L 379.689304 250.248571 
L 380.556864 247.864117 
L 381.424448 249.916853 
L 382.292053 245.821573 
L 383.159677 249.377017 
L 384.027319 247.098747 
L 384.894977 249.896891 
L 385.76265 249.619965 
L 386.630336 247.402856 
L 387.497916 246.589067 
L 388.366569 248.567051 
L 389.236891 247.696772 
L 390.107224 249.659465 
L 390.977569 250.060838 
L 391.847926 248.43326 
L 392.718296 247.737546 
L 393.58868 250.331393 
L 394.45908 247.708239 
L 395.329499 247.276285 
L 396.199939 249.426711 
L 397.073943 247.208753 
L 397.948669 248.325802 
L 398.823439 251.905031 
L 399.698255 241.294339 
L 400.573123 247.750713 
L 401.448047 245.479663 
L 402.323031 251.592002 
L 403.198082 249.286124 
L 404.519961 249.26956 
L 405.397304 250.194205 
L 406.27474 248.141468 
L 407.152277 246.39199 
L 408.029921 250.495341 
L 408.906018 249.088199 
L 409.789697 248.461717 
L 410.673533 248.346189 
L 411.557536 248.665589 
L 412.441716 246.974725 
L 413.326082 248.175021 
L 415.98041 248.460867 
L 416.865634 248.51226 
L 417.750629 249.001978 
L 418.635082 249.047424 
L 419.519774 248.541567 
L 420.410369 248.798955 
L 421.30589 248.008951 
L 422.201738 248.423915 
L 423.096489 250.373867 
L 423.991441 249.467061 
L 425.782567 249.846348 
L 426.678777 249.619965 
L 427.575444 247.256323 
L 428.472588 249.640777 
L 429.370227 249.640352 
L 429.370227 249.640352 
" clip-path="url(#p52a6426ce2)" style="fill: none; stroke: #1f77b4; stroke-width: 2; stroke-linecap: square"/>
   </g>
   <g id="line2d_11">
    <path d="M 88.774773 258.251823 
L 89.169905 258.251399 
L 89.569164 256.969553 
L 90.358903 255.608283 
L 90.753349 257.848327 
L 91.554621 258.845177 
L 92.348341 257.21335 
L 92.746271 256.6561 
L 93.148336 258.029263 
L 93.55457 257.041758 
L 94.351866 254.807235 
L 94.753348 254.049086 
L 95.158984 254.712095 
L 95.568808 254.736304 
L 95.98285 256.469218 
L 96.774351 257.154737 
L 97.183617 254.764337 
L 97.597087 255.472368 
L 98.014792 254.829745 
L 98.809012 250.643573 
L 99.221956 250.312705 
L 99.639119 252.716697 
L 100.060533 251.809041 
L 100.486229 248.872859 
L 101.694573 243.041268 
L 102.119732 242.533711 
L 103.338418 235.809331 
L 103.763072 234.798889 
L 104.192001 232.562243 
L 104.625237 232.286165 
L 105.412712 230.034654 
L 105.844193 230.855238 
L 106.276909 230.475528 
L 106.713939 234.108697 
L 107.155313 227.769551 
L 107.937469 237.499345 
L 108.373976 238.889923 
L 108.814803 239.607722 
L 109.259981 237.862916 
L 110.033552 233.213361 
L 110.482679 237.512936 
L 110.927296 236.021697 
L 111.376267 240.649593 
L 112.139818 238.175096 
L 112.598997 230.377414 
L 113.050838 239.843449 
L 113.503581 239.710082 
L 113.960707 240.691217 
L 114.720119 239.879127 
L 115.184809 241.514351 
L 115.641293 239.124376 
L 116.102158 238.784589 
L 116.851544 243.208188 
L 117.322288 242.955896 
L 117.788733 245.660175 
L 118.253293 245.573529 
L 118.992599 245.887407 
L 119.467107 248.790036 
L 119.945193 248.457894 
L 120.413396 245.622798 
L 120.885993 247.283506 
L 121.620778 247.279683 
L 122.102824 248.274409 
L 122.58172 248.088801 
L 123.057888 246.525357 
L 123.782556 249.366399 
L 124.268197 246.921633 
L 124.757491 247.499271 
L 125.237159 249.466211 
L 125.721226 250.443523 
L 126.440814 249.674756 
L 126.933795 250.590481 
L 127.423005 252.45676 
L 127.91048 249.05337 
L 128.619878 250.976988 
L 129.116248 250.852117 
L 129.614611 252.728165 
L 130.105408 251.712202 
L 130.804577 250.955752 
L 131.304233 251.955574 
L 131.807699 253.965838 
L 132.305185 254.577879 
L 132.80359 253.498206 
L 133.49693 255.982897 
L 134.508985 256.310792 
L 135.010514 255.110495 
L 135.693524 255.129183 
L 136.71599 257.092301 
L 137.220552 256.05935 
L 137.893206 255.451131 
L 138.405817 256.063171 
L 138.922187 257.480507 
L 139.94474 255.78667 
L 140.610628 258.946688 
L 141.129806 254.791095 
L 141.646785 256.270867 
L 142.161456 257.358185 
L 142.816867 256.872714 
L 143.338749 255.917488 
L 143.861461 256.756762 
L 144.378877 258.321055 
L 144.904006 257.384518 
L 145.548292 259.780439 
L 146.07622 258.6876 
L 146.596304 258.816294 
L 147.124334 261.752903 
L 147.757752 258.776794 
L 148.288435 261.361722 
L 148.813081 259.887897 
L 149.344029 260.680875 
L 149.966495 262.452013 
L 150.499588 261.219011 
L 151.387171 258.219969 
L 151.757293 260.352981 
L 152.41918 260.023388 
L 152.788897 262.588778 
L 153.448388 259.732869 
L 154.187722 260.414567 
L 154.843583 262.741681 
L 155.21317 260.987108 
L 155.866555 260.371668 
L 157.605793 261.779236 
L 157.980757 260.843972 
L 158.631628 260.486771 
L 159.006016 261.819585 
L 159.381084 259.543014 
L 160.028081 261.306082 
L 160.402552 261.274227 
L 161.046922 261.342185 
L 161.420787 259.371421 
L 162.062515 261.308207 
L 162.435765 260.61589 
L 162.809671 263.180433 
L 163.44747 261.164647 
L 163.820748 262.419733 
L 163.947839 264.40961 
L 164.455887 262.929414 
L 164.828532 261.298862 
L 165.601047 264.192996 
L 166.153744 262.25069 
L 166.707352 262.281271 
L 167.262473 265.543224 
L 167.800991 263.707525 
L 168.355427 265.721187 
L 168.910785 263.501104 
L 169.468433 262.830027 
L 169.996684 261.346857 
L 170.552909 264.783376 
L 171.110009 262.636771 
L 171.670147 262.875897 
L 172.188213 266.390567 
L 172.746297 262.727666 
L 173.305158 264.203615 
L 173.867349 263.064053 
L 174.375752 263.989548 
L 174.935785 262.45711 
L 175.496453 264.300878 
L 176.559565 264.928634 
L 177.12141 264.142029 
L 177.684203 262.502133 
L 178.250683 265.800188 
L 178.740002 263.506626 
L 179.303696 265.708445 
L 179.868809 263.988698 
L 180.437641 263.717294 
L 180.917504 263.16599 
L 181.483167 263.498133 
L 182.050763 263.32739 
L 182.622115 263.894408 
L 183.092608 263.943253 
L 183.66039 261.320523 
L 184.230653 265.758565 
L 184.804716 263.480293 
L 185.265943 262.452013 
L 185.836027 264.750246 
L 186.409165 264.625375 
L 186.986155 262.630401 
L 187.438238 265.1822 
L 188.010838 263.357121 
L 188.587087 265.152044 
L 189.167246 265.252281 
L 189.610015 263.275995 
L 190.185692 264.814805 
L 190.765314 263.890587 
L 191.348911 263.338432 
L 191.782298 261.585133 
L 192.361567 263.250938 
L 192.944852 263.814133 
L 193.532189 262.311426 
L 193.956383 264.187049 
L 194.539558 262.88864 
L 195.126832 265.535578 
L 195.718241 267.090104 
L 196.133461 269.98891 
L 196.720891 269.224389 
L 197.312511 271.407943 
L 197.908362 276.410455 
L 198.314856 270.04455 
L 198.906927 271.065609 
L 199.503291 268.457321 
L 200.103994 266.881559 
L 200.502042 267.503793 
L 201.700732 265.70717 
L 202.30674 261.09499 
L 202.696655 264.511546 
L 203.299339 264.288986 
L 203.906565 263.044091 
L 204.062616 261.678998 
L 204.746271 263.482418 
L 205.008761 263.242867 
L 205.693591 262.906054 
L 206.379003 261.202022 
L 207.065025 264.800788 
L 207.330515 262.611288 
L 208.017938 262.928989 
L 208.907518 263.394072 
L 211.503517 263.727912 
L 231.885912 264.120367 
L 233.721101 263.642965 
L 235.177263 258.347814 
L 235.563654 264.06133 
L 237.016414 263.462879 
L 238.862814 262.149178 
L 240.716424 263.247115 
L 242.577208 261.026184 
L 244.025902 262.837247 
L 245.890045 262.881419 
L 249.208379 262.725967 
L 249.639407 262.909452 
L 251.082554 259.782563 
L 252.963628 263.283642 
L 254.851572 263.091237 
L 256.746355 261.609768 
L 258.18264 260.143162 
L 258.64795 261.309905 
L 260.079879 263.687563 
L 261.983828 261.544784 
L 263.894522 261.727418 
L 265.322752 263.75 
L 265.811875 263.032199 
L 267.2355 261.516326 
L 269.154823 261.783058 
L 271.080678 263.260281 
L 272.499974 259.486524 
L 273.005474 262.838522 
L 274.427548 261.089044 
L 276.353724 261.222836 
L 278.284393 263.547401 
L 279.703697 261.752477 
L 280.221283 259.312808 
L 281.635844 263.199544 
L 283.574144 262.522944 
L 285.518575 261.608493 
L 286.928358 263.642541 
L 287.469116 263.519793 
L 288.874067 262.324595 
L 290.825831 259.710358 
L 292.783633 261.888392 
L 294.747457 261.630155 
L 296.142744 257.833036 
L 296.717287 260.640525 
L 298.107686 260.220039 
L 300.0786 261.838698 
L 302.055473 261.781784 
L 303.441381 262.445643 
L 304.038295 261.548181 
L 305.419367 261.688342 
L 307.403289 261.396126 
L 309.393142 260.045898 
L 310.770356 264.04986 
L 311.388925 261.664557 
L 314.913246 261.581735 
L 315.581856 259.794456 
L 316.250891 260.092619 
L 316.920346 258.947112 
L 317.590213 261.959323 
L 318.260486 260.740762 
L 318.931158 262.992275 
L 320.273673 261.803871 
L 320.945501 261.953801 
L 321.617702 263.438244 
L 322.30006 264.660203 
L 322.990128 262.226055 
L 323.680618 262.712375 
L 324.366239 261.861208 
L 325.050515 262.41039 
L 325.73517 262.18358 
L 326.420198 264.105924 
L 327.105591 263.868924 
L 327.791343 265.344872 
L 328.485611 263.124366 
L 329.182191 263.556744 
L 329.879152 264.743875 
L 330.576489 261.207118 
L 331.274194 263.194872 
L 331.972261 263.470099 
L 332.670683 261.043597 
L 333.369455 263.128188 
L 334.071336 263.255184 
L 334.778863 262.157673 
L 335.486658 264.280067 
L 336.194777 260.416266 
L 336.903263 264.184502 
L 337.612112 263.753397 
L 338.32114 265.467622 
L 339.029045 263.126915 
L 339.737313 263.768262 
L 340.445937 264.042641 
L 341.153484 263.539756 
L 341.874053 261.936811 
L 342.595021 263.004168 
L 343.316384 265.374604 
L 344.398835 263.263679 
L 345.123313 263.534234 
L 346.573384 263.413185 
L 347.29897 262.96594 
L 348.022492 265.039066 
L 348.745779 261.665408 
L 349.469422 263.197845 
L 350.917765 263.720693 
L 351.64246 261.168469 
L 352.367503 261.006221 
L 353.09289 264.63302 
L 353.818621 264.084264 
L 354.555419 262.117322 
L 355.298634 262.63932 
L 356.042256 266.330255 
L 356.786285 264.526412 
L 357.530719 264.196818 
L 358.274585 262.765891 
L 359.018484 264.844112 
L 359.76279 262.829601 
L 360.507505 262.965516 
L 362.744105 262.46603 
L 363.490463 264.400266 
L 364.237236 260.187335 
L 364.984428 262.219261 
L 366.480077 261.870129 
L 367.233061 264.279217 
L 367.997288 264.330185 
L 368.76205 264.185775 
L 369.52751 264.84666 
L 370.293479 262.76674 
L 371.059962 262.545878 
L 371.826966 265.055204 
L 372.594498 264.092335 
L 373.362565 262.32884 
L 374.131177 262.658009 
L 374.900341 264.497529 
L 375.670069 264.100828 
L 376.44037 264.164115 
L 377.982738 260.174168 
L 378.754831 262.456686 
L 379.527548 262.740832 
L 379.689304 263.881667 
L 380.556864 265.293055 
L 381.424448 264.922688 
L 382.292053 264.234196 
L 383.159677 269.743837 
L 384.027319 264.256706 
L 384.894977 266.343846 
L 385.76265 264.759591 
L 387.497916 264.777854 
L 388.366569 266.714639 
L 390.107224 263.06193 
L 390.977569 266.48868 
L 391.847926 262.775661 
L 392.718296 264.675919 
L 394.45908 265.156716 
L 395.329499 262.700482 
L 396.199939 264.603713 
L 397.073943 264.478416 
L 397.948669 262.493213 
L 398.823439 265.124861 
L 399.698255 266.372304 
L 400.573123 263.865526 
L 401.448047 262.497035 
L 402.323031 275.057254 
L 403.198082 264.63302 
L 404.519961 265.428546 
L 405.397304 263.803939 
L 406.27474 263.687563 
L 407.152277 267.056124 
L 408.029921 265.431944 
L 408.906018 265.363137 
L 409.789697 265.133782 
L 410.673533 265.453605 
L 411.557536 263.446739 
L 412.441716 262.995672 
L 413.326082 263.030925 
L 414.210645 263.34268 
L 415.095417 264.651709 
L 415.98041 265.364835 
L 416.865634 263.361366 
L 417.750629 262.634648 
L 418.635082 264.527261 
L 419.519774 262.880569 
L 420.410369 266.868817 
L 421.30589 264.871295 
L 422.201738 264.281341 
L 423.096489 264.277944 
L 423.991441 264.508997 
L 424.886794 264.398992 
L 425.782567 266.597837 
L 426.678777 264.397717 
L 427.575444 264.186625 
L 429.370227 264.247787 
L 429.370227 264.247787 
" clip-path="url(#p52a6426ce2)" style="fill: none; stroke: #ff7f0e; stroke-width: 2; stroke-linecap: square"/>
   </g>
   <g id="line2d_12">
    <path d="M 88.774773 258.084054 
L 89.169905 258.084479 
L 89.569164 257.872537 
L 90.358903 258.829037 
L 90.753349 257.196786 
L 91.151911 257.258372 
L 91.554621 258.398357 
L 92.348341 253.448937 
L 92.746271 255.125786 
L 93.148336 255.357265 
L 93.55457 256.940671 
L 94.351866 255.212006 
L 94.753348 250.114779 
L 95.158984 254.825073 
L 95.568808 253.998118 
L 95.98285 257.929876 
L 96.774351 252.975784 
L 97.183617 254.594869 
L 97.597087 255.230695 
L 98.014792 253.525389 
L 98.809012 252.76809 
L 99.221956 252.556148 
L 99.639119 249.73889 
L 100.060533 250.856789 
L 100.486229 247.45977 
L 101.273679 244.586448 
L 101.694573 245.772304 
L 102.119732 247.648777 
L 102.549186 246.162209 
L 103.338418 242.194349 
L 103.763072 241.491415 
L 104.192001 239.797578 
L 104.625237 242.076698 
L 105.844193 236.618872 
L 106.276909 236.352564 
L 106.713939 237.825965 
L 107.155313 231.617637 
L 107.937469 237.639932 
L 108.373976 238.794783 
L 108.814803 239.186387 
L 109.259981 240.189608 
L 110.033552 235.297951 
L 110.482679 242.819132 
L 110.927296 244.515518 
L 111.376267 246.856649 
L 112.139818 244.286162 
L 112.598997 236.616749 
L 113.050838 243.519942 
L 113.503581 243.203516 
L 113.960707 243.286764 
L 114.720119 244.284887 
L 115.184809 243.374684 
L 115.641293 241.616711 
L 116.102158 243.749299 
L 116.851544 244.983999 
L 117.322288 246.067069 
L 117.788733 245.02265 
L 118.253293 243.647362 
L 118.992599 243.943401 
L 119.467107 248.040806 
L 119.945193 247.247404 
L 120.413396 247.456372 
L 120.885993 245.173005 
L 121.620778 247.251651 
L 122.102824 247.410926 
L 122.58172 247.758358 
L 123.057888 249.632282 
L 123.782556 249.46791 
L 124.268197 246.064521 
L 124.757491 246.157537 
L 125.237159 247.734998 
L 125.721226 247.34127 
L 126.440814 248.592959 
L 126.933795 247.952036 
L 127.423005 249.414819 
L 127.91048 247.904891 
L 128.619878 250.597701 
L 129.116248 250.576465 
L 129.614611 254.601664 
L 130.105408 251.195726 
L 130.804577 254.665798 
L 131.304233 251.693089 
L 131.807699 251.860009 
L 132.305185 252.613911 
L 132.80359 254.110672 
L 133.49693 252.047317 
L 134.003555 252.711175 
L 134.508985 252.819058 
L 135.010514 253.502454 
L 135.693524 253.967537 
L 136.203196 254.860752 
L 136.71599 255.441787 
L 137.220552 252.65596 
L 137.893206 253.539405 
L 138.405817 258.397508 
L 138.922187 255.86652 
L 139.432901 254.806811 
L 139.94474 254.344701 
L 140.610628 255.777751 
L 141.129806 253.657481 
L 141.646785 256.98357 
L 142.161456 256.230942 
L 142.816867 255.717864 
L 143.338749 254.799589 
L 143.861461 256.485357 
L 144.378877 254.918091 
L 144.904006 258.080232 
L 145.548292 256.800934 
L 146.07622 258.964527 
L 146.596304 258.227614 
L 147.124334 260.802773 
L 147.757752 258.037758 
L 148.288435 258.979392 
L 148.813081 257.872537 
L 149.344029 260.286297 
L 149.966495 257.80288 
L 150.499588 262.758247 
L 151.387171 257.793536 
L 151.757293 258.289625 
L 152.41918 257.572675 
L 152.788897 259.675956 
L 153.448388 261.489992 
L 153.81768 258.60053 
L 154.187722 259.490347 
L 154.843583 259.584637 
L 155.21317 259.191334 
L 155.866555 259.399454 
L 157.605793 258.527051 
L 157.980757 258.008027 
L 158.631628 260.324099 
L 159.006016 259.032059 
L 159.381084 259.377367 
L 160.028081 258.301093 
L 160.402552 258.375846 
L 161.046922 260.262512 
L 161.420787 261.993726 
L 162.062515 261.257663 
L 162.435765 261.490417 
L 162.809671 263.250512 
L 163.44747 261.729966 
L 163.820748 261.264883 
L 163.947839 259.359529 
L 164.455887 261.315427 
L 164.828532 261.265308 
L 165.052197 260.461712 
L 165.601047 264.210834 
L 166.153744 262.765467 
L 166.707352 263.967462 
L 167.262473 262.404867 
L 167.800991 262.112226 
L 168.355427 260.351282 
L 168.910785 262.651212 
L 169.468433 264.241415 
L 169.996684 263.623853 
L 170.552909 261.204147 
L 171.110009 263.362642 
L 171.670147 261.049968 
L 172.188213 260.948033 
L 172.746297 262.696234 
L 173.305158 262.792225 
L 173.867349 262.513599 
L 174.375752 262.831725 
L 174.935785 259.648348 
L 175.496453 263.146028 
L 176.060726 261.753327 
L 176.559565 262.821531 
L 177.684203 262.551401 
L 178.250683 260.486771 
L 178.740002 262.753151 
L 179.303696 262.733188 
L 179.868809 260.906833 
L 180.437641 260.825709 
L 180.917504 262.68859 
L 181.483167 260.633304 
L 182.050763 260.254442 
L 182.622115 260.973092 
L 183.092608 260.592955 
L 183.66039 260.803623 
L 184.230653 262.621908 
L 184.804716 260.398427 
L 185.265943 261.814063 
L 185.836027 261.932564 
L 186.409165 263.870624 
L 187.438238 260.2812 
L 188.010838 262.590476 
L 188.587087 262.258759 
L 189.610015 262.386181 
L 190.185692 262.139834 
L 190.765314 260.656665 
L 191.348911 260.185635 
L 191.782298 260.415841 
L 192.361567 262.6733 
L 192.944852 260.700412 
L 193.532189 259.361653 
L 193.956383 261.409293 
L 194.539558 259.944811 
L 195.126832 264.579078 
L 195.718241 266.054177 
L 196.133461 266.704446 
L 196.720891 267.379771 
L 197.312511 267.667741 
L 197.908362 274.562864 
L 198.314856 267.209453 
L 198.906927 267.960382 
L 199.503291 266.847155 
L 200.103994 265.28456 
L 200.502042 262.033226 
L 201.099181 263.528288 
L 201.700732 266.191367 
L 202.30674 262.095662 
L 202.696655 263.393223 
L 203.299339 263.308701 
L 203.906565 262.062532 
L 204.062616 260.771768 
L 205.008761 260.406072 
L 205.693591 261.870129 
L 206.379003 259.972419 
L 207.065025 261.624632 
L 207.330515 259.577417 
L 208.017938 259.999177 
L 208.70606 260.144861 
L 208.907518 262.908603 
L 210.774948 263.052587 
L 211.503517 263.549524 
L 231.885912 263.018607 
L 233.721101 260.143162 
L 235.177263 258.588213 
L 235.563654 262.751026 
L 237.016414 260.110033 
L 238.862814 261.076302 
L 240.716424 258.225065 
L 242.168823 260.772618 
L 242.577208 256.458599 
L 244.025902 262.182732 
L 245.890045 261.62803 
L 247.761223 259.3264 
L 249.208379 259.961801 
L 249.639407 262.089292 
L 251.082554 260.486771 
L 252.963628 260.252743 
L 254.851572 259.899364 
L 256.746355 260.317302 
L 258.18264 261.044446 
L 258.64795 260.377614 
L 261.983828 260.976065 
L 263.894522 261.084796 
L 265.322752 260.616316 
L 265.811875 259.926972 
L 267.2355 258.50454 
L 269.154823 260.876252 
L 271.080678 260.058216 
L 272.499974 261.620386 
L 273.005474 261.585983 
L 274.427548 263.983602 
L 276.353724 260.207721 
L 278.284393 260.172893 
L 279.703697 260.294367 
L 280.221283 257.654648 
L 281.635844 260.192856 
L 283.574144 258.112936 
L 285.518575 259.566798 
L 286.928358 260.205598 
L 287.469116 259.908284 
L 288.874067 261.351104 
L 290.825831 260.516928 
L 292.783633 258.48118 
L 294.747457 260.523298 
L 296.142744 259.311534 
L 296.717287 259.620316 
L 298.107686 261.127694 
L 300.0786 260.926796 
L 302.055473 258.827763 
L 303.441381 260.362324 
L 304.038295 258.579718 
L 305.419367 260.473605 
L 307.403289 260.38526 
L 309.393142 258.864714 
L 310.770356 260.954403 
L 311.388925 260.586159 
L 314.913246 257.394711 
L 315.581856 259.53197 
L 316.250891 258.252673 
L 316.920346 259.377792 
L 317.590213 258.346114 
L 318.260486 259.546836 
L 318.931158 259.491196 
L 319.602223 261.218163 
L 320.273673 260.437078 
L 320.945501 260.034855 
L 321.617702 267.358961 
L 322.30006 259.88365 
L 322.990128 261.00537 
L 323.680618 261.002823 
L 324.366239 262.460507 
L 325.050515 261.296313 
L 325.73517 261.289518 
L 326.420198 260.581487 
L 327.105591 262.487267 
L 327.791343 262.022182 
L 328.485611 262.103308 
L 329.182191 262.936209 
L 329.879152 261.862483 
L 330.576489 259.070285 
L 331.274194 262.244744 
L 331.972261 260.205173 
L 332.670683 262.085893 
L 333.369455 261.938936 
L 334.071336 262.001796 
L 334.778863 260.722074 
L 335.486658 260.759025 
L 336.194777 261.978012 
L 336.903263 262.503407 
L 338.32114 262.3934 
L 339.029045 262.451589 
L 339.737313 260.502061 
L 340.445937 262.562869 
L 341.153484 258.119307 
L 341.874053 262.058287 
L 342.595021 261.6344 
L 344.398835 261.813214 
L 345.123313 260.350008 
L 345.848164 262.279997 
L 346.573384 262.400622 
L 347.29897 261.500186 
L 348.022492 261.009193 
L 348.745779 262.897559 
L 349.469422 261.593202 
L 350.193418 261.921945 
L 350.917765 260.308383 
L 351.64246 259.980489 
L 352.367503 260.054817 
L 353.09289 262.336061 
L 353.818621 263.3894 
L 354.555419 263.444616 
L 355.298634 262.117322 
L 356.042256 262.190378 
L 356.786285 263.944102 
L 358.274585 259.521776 
L 359.018484 261.583432 
L 359.76279 261.878624 
L 360.507505 261.69981 
L 361.252628 261.840821 
L 361.998161 261.433928 
L 362.744105 261.334116 
L 363.490463 259.998328 
L 364.237236 261.209243 
L 364.984428 261.383382 
L 365.73204 263.187227 
L 366.480077 260.519475 
L 367.233061 262.887365 
L 367.997288 260.983284 
L 368.76205 260.622262 
L 369.52751 261.415239 
L 370.293479 261.392727 
L 371.059962 261.089468 
L 371.826966 259.354856 
L 372.594498 262.935785 
L 373.362565 261.301834 
L 374.131177 261.800472 
L 374.900341 263.290436 
L 375.670069 262.908177 
L 376.44037 262.971462 
L 377.211256 261.413114 
L 377.982738 261.89986 
L 378.754831 261.816612 
L 379.527548 262.042996 
L 379.689304 262.73786 
L 380.556864 263.312099 
L 381.424448 260.238302 
L 382.292053 263.017334 
L 383.159677 262.7935 
L 384.027319 263.081045 
L 384.894977 262.852537 
L 386.630336 263.354572 
L 387.497916 263.330787 
L 389.236891 263.465427 
L 390.107224 261.513352 
L 390.977569 263.047915 
L 391.847926 263.3499 
L 392.718296 261.201598 
L 394.45908 261.526519 
L 395.329499 263.24414 
L 396.199939 261.309905 
L 397.073943 263.28704 
L 397.948669 263.741079 
L 398.823439 263.998893 
L 399.698255 259.137818 
L 400.573123 263.620455 
L 401.448047 270.030108 
L 402.323031 239.756804 
L 403.198082 267.574723 
L 404.519961 263.652735 
L 405.397304 262.68859 
L 406.27474 261.097963 
L 407.152277 263.112474 
L 408.029921 263.842591 
L 408.906018 261.88287 
L 409.789697 261.852715 
L 410.673533 264.222302 
L 411.557536 264.098705 
L 412.441716 263.68459 
L 413.326082 261.670504 
L 414.210645 261.89986 
L 415.095417 265.612031 
L 415.98041 261.949554 
L 416.865634 264.232495 
L 417.750629 263.28534 
L 418.635082 261.031281 
L 419.519774 263.870199 
L 420.410369 261.139586 
L 421.30589 261.57961 
L 422.201738 263.29341 
L 423.096489 262.981231 
L 424.886794 263.203367 
L 425.782567 263.488364 
L 426.678777 263.326115 
L 427.575444 262.965092 
L 428.472588 261.000698 
L 429.370227 261.001549 
L 429.370227 261.001549 
" clip-path="url(#p52a6426ce2)" style="fill: none; stroke: #2ca02c; stroke-width: 2; stroke-linecap: square"/>
   </g>
   <g id="line2d_13">
    <path d="M 88.774773 256.893101 
L 89.169905 256.893526 
L 89.569164 254.51247 
L 90.358903 256.224996 
L 90.753349 254.441964 
L 91.151911 253.911048 
L 91.554621 256.031742 
L 92.348341 252.356098 
L 92.746271 252.84624 
L 93.148336 254.815305 
L 93.55457 250.701761 
L 94.351866 249.872681 
L 94.753348 243.948923 
L 95.158984 245.264747 
L 95.568808 244.729583 
L 95.98285 243.875019 
L 96.774351 236.165257 
L 97.183617 233.73196 
L 97.597087 233.518317 
L 98.014792 232.164693 
L 98.809012 217.628615 
L 99.221956 214.251559 
L 100.060533 194.289509 
L 101.273679 149.209139 
L 101.694573 145.81297 
L 102.119732 165.566902 
L 102.549186 169.891117 
L 103.338418 173.974076 
L 103.763072 177.515932 
L 104.192001 178.391736 
L 104.625237 185.816499 
L 105.412712 190.651664 
L 105.844193 191.609014 
L 106.276909 195.232839 
L 106.713939 200.724221 
L 107.155313 194.674742 
L 107.937469 207.375547 
L 108.373976 211.576162 
L 108.814803 212.824453 
L 109.259981 213.480241 
L 110.033552 211.509054 
L 110.482679 219.43798 
L 110.927296 222.263731 
L 112.598997 218.048676 
L 113.503581 228.400278 
L 113.960707 228.931197 
L 114.720119 228.349736 
L 115.184809 233.028176 
L 115.641293 235.226171 
L 116.102158 236.794288 
L 116.851544 236.144446 
L 117.322288 237.209677 
L 117.788733 237.041058 
L 118.253293 240.381587 
L 119.945193 241.255688 
L 120.413396 239.403001 
L 121.620778 245.912466 
L 122.102824 243.251936 
L 122.58172 245.423173 
L 123.057888 242.546028 
L 123.782556 242.194774 
L 124.268197 243.318194 
L 124.757491 245.923934 
L 125.237159 246.323608 
L 125.721226 248.468088 
L 126.440814 250.558201 
L 126.933795 249.901138 
L 127.423005 250.970193 
L 127.91048 247.81952 
L 128.619878 249.247898 
L 129.116248 252.791874 
L 129.614611 248.880079 
L 130.105408 249.65097 
L 130.804577 252.954547 
L 131.304233 252.78338 
L 131.807699 251.893139 
L 132.305185 253.263754 
L 132.80359 253.755595 
L 133.49693 253.808262 
L 134.003555 251.866805 
L 135.010514 254.659428 
L 135.693524 254.720165 
L 136.203196 256.060199 
L 136.71599 254.890058 
L 137.220552 256.263221 
L 137.893206 257.164931 
L 138.405817 257.071065 
L 138.922187 256.224996 
L 139.432901 257.194238 
L 139.94474 256.451379 
L 140.610628 257.458422 
L 141.129806 257.279184 
L 141.646785 257.463943 
L 142.161456 257.44568 
L 142.816867 256.891402 
L 143.338749 259.895967 
L 143.861461 257.561207 
L 144.904006 259.07156 
L 145.548292 258.112086 
L 146.07622 260.421362 
L 146.596304 261.910053 
L 147.124334 256.790316 
L 147.757752 259.593981 
L 148.288435 259.668735 
L 148.813081 260.479551 
L 149.344029 259.438529 
L 149.966495 261.005794 
L 150.499588 263.967038 
L 151.387171 258.406002 
L 151.757293 260.307534 
L 152.41918 256.990365 
L 152.788897 261.083946 
L 153.448388 260.479551 
L 153.81768 261.474277 
L 154.187722 260.397153 
L 154.843583 260.246372 
L 155.21317 261.5159 
L 155.866555 259.288598 
L 157.605793 259.251222 
L 157.980757 258.95136 
L 158.631628 260.869881 
L 159.006016 260.455342 
L 159.381084 260.602723 
L 160.028081 262.175937 
L 160.402552 261.955924 
L 161.046922 259.859441 
L 161.420787 257.464368 
L 162.062515 260.820187 
L 162.435765 261.318825 
L 162.809671 263.130313 
L 163.44747 261.568567 
L 163.820748 261.143834 
L 163.947839 259.365475 
L 164.455887 260.028484 
L 164.828532 260.019564 
L 165.052197 260.872854 
L 165.601047 260.598901 
L 166.153744 261.831053 
L 166.707352 261.77159 
L 167.262473 258.569524 
L 168.355427 263.026678 
L 168.910785 263.125641 
L 169.468433 260.59338 
L 169.996684 260.915752 
L 170.552909 262.099484 
L 171.110009 260.017865 
L 171.670147 261.610192 
L 172.188213 261.459412 
L 172.746297 263.338432 
L 173.305158 261.419487 
L 173.867349 262.273624 
L 174.375752 262.061682 
L 174.935785 260.312631 
L 175.496453 264.153497 
L 176.060726 262.196323 
L 176.559565 263.337583 
L 177.12141 263.618333 
L 177.684203 262.818134 
L 178.250683 261.305232 
L 178.740002 263.274297 
L 179.303696 263.171936 
L 179.868809 261.434777 
L 180.437641 263.717294 
L 180.917504 263.407665 
L 181.483167 261.869703 
L 182.050763 259.77152 
L 182.622115 262.959995 
L 183.092608 259.495868 
L 184.230653 263.355846 
L 184.804716 263.717718 
L 185.265943 265.077715 
L 185.836027 259.644949 
L 186.409165 263.11757 
L 186.986155 261.633552 
L 187.438238 261.12812 
L 188.010838 261.429679 
L 188.587087 261.018537 
L 189.167246 263.068302 
L 189.610015 263.213135 
L 190.185692 264.819903 
L 190.765314 263.544852 
L 191.348911 261.5571 
L 191.782298 261.463233 
L 192.361567 261.642047 
L 192.944852 264.204888 
L 193.532189 262.460083 
L 193.956383 262.235825 
L 194.539558 263.168539 
L 195.126832 265.641337 
L 195.718241 264.604137 
L 196.133461 267.396336 
L 196.720891 268.542692 
L 197.312511 270.580989 
L 197.908362 275.479865 
L 198.314856 268.951286 
L 199.503291 265.589944 
L 200.103994 266.78387 
L 200.502042 263.202517 
L 201.099181 264.416406 
L 201.700732 263.352873 
L 202.30674 261.396975 
L 202.696655 262.691563 
L 203.299339 262.683494 
L 203.906565 261.567718 
L 204.062616 261.912602 
L 204.746271 260.998151 
L 205.008761 261.118775 
L 205.693591 262.759097 
L 206.379003 263.469251 
L 207.065025 263.093785 
L 207.330515 259.805499 
L 208.017938 263.834947 
L 208.907518 261.785181 
L 210.774948 263.220782 
L 211.503517 263.341831 
L 231.885912 262.014113 
L 233.721101 261.376588 
L 235.177263 260.311781 
L 235.563654 261.395276 
L 237.016414 262.335637 
L 238.862814 259.308561 
L 240.716424 259.188786 
L 242.168823 258.968349 
L 242.577208 258.401754 
L 244.025902 263.102281 
L 245.890045 261.54988 
L 247.761223 261.208819 
L 249.208379 260.296066 
L 249.639407 260.635853 
L 251.082554 260.902585 
L 252.963628 260.706784 
L 254.851572 262.570513 
L 256.746355 260.996877 
L 258.18264 261.592777 
L 258.64795 261.087345 
L 260.079879 261.033828 
L 261.983828 260.811692 
L 265.322752 261.380835 
L 265.811875 259.593132 
L 267.2355 259.263964 
L 269.154823 261.456014 
L 271.080678 260.106211 
L 272.499974 259.563825 
L 273.005474 261.216888 
L 274.427548 261.079274 
L 276.353724 259.768547 
L 278.284393 261.240248 
L 279.703697 261.270405 
L 280.221283 261.995 
L 281.635844 259.962225 
L 283.574144 263.300206 
L 285.518575 259.782139 
L 286.928358 259.170098 
L 287.469116 262.000096 
L 288.874067 259.803375 
L 290.825831 261.224533 
L 292.783633 261.733364 
L 294.747457 260.177141 
L 296.142744 259.551508 
L 296.717287 258.164753 
L 298.107686 262.053614 
L 300.0786 261.880321 
L 302.055473 260.536889 
L 303.441381 259.140366 
L 304.038295 259.599078 
L 305.419367 259.861139 
L 307.403289 261.108581 
L 309.393142 259.797854 
L 310.770356 261.845918 
L 311.388925 260.369121 
L 314.913246 259.652594 
L 315.581856 260.581063 
L 316.250891 259.523051 
L 316.920346 257.660595 
L 317.590213 258.584815 
L 318.260486 258.803128 
L 318.931158 261.306932 
L 319.602223 259.490771 
L 320.273673 262.316098 
L 320.945501 262.046817 
L 321.617702 261.899434 
L 322.30006 262.598122 
L 322.990128 262.490238 
L 323.680618 262.6733 
L 324.366239 261.927892 
L 325.050515 260.919999 
L 325.73517 260.676203 
L 326.420198 259.23763 
L 327.105591 262.325868 
L 327.791343 260.523298 
L 328.485611 261.997123 
L 329.182191 262.490664 
L 329.879152 262.547579 
L 330.576489 260.964171 
L 331.274194 261.934688 
L 331.972261 262.203543 
L 332.670683 261.7563 
L 333.369455 261.947007 
L 334.071336 261.715101 
L 334.778863 260.446421 
L 335.486658 260.594654 
L 336.194777 260.942087 
L 336.903263 262.519545 
L 337.612112 262.419309 
L 339.029045 261.94573 
L 339.737313 262.24984 
L 340.445937 260.689794 
L 341.153484 262.674999 
L 341.874053 263.181281 
L 342.595021 263.171936 
L 343.316384 261.223684 
L 345.123313 262.347105 
L 345.848164 260.128722 
L 346.573384 259.857316 
L 347.29897 261.970365 
L 348.022492 262.363669 
L 348.745779 260.302437 
L 349.469422 260.128296 
L 350.193418 261.901983 
L 350.917765 260.332168 
L 351.64246 261.838274 
L 353.09289 261.772016 
L 353.818621 263.414035 
L 354.555419 262.126667 
L 355.298634 259.920177 
L 356.042256 262.101184 
L 356.786285 261.360872 
L 357.530719 261.681123 
L 358.274585 263.362218 
L 359.018484 261.323072 
L 359.76279 261.340486 
L 360.507505 261.177388 
L 361.252628 261.86758 
L 361.998161 261.183334 
L 362.744105 258.908887 
L 363.490463 259.399029 
L 364.237236 260.958651 
L 364.984428 260.890693 
L 365.73204 262.684342 
L 366.480077 261.485745 
L 367.233061 263.425503 
L 367.997288 263.300206 
L 368.76205 261.783058 
L 369.52751 261.830203 
L 370.293479 263.61111 
L 371.059962 260.96757 
L 371.826966 262.245593 
L 372.594498 263.045791 
L 373.362565 261.20542 
L 374.131177 263.243292 
L 374.900341 261.410992 
L 375.670069 260.994328 
L 377.982738 261.481922 
L 378.754831 262.864855 
L 379.527548 261.633126 
L 379.689304 262.070179 
L 380.556864 261.029156 
L 381.424448 262.32162 
L 382.292053 262.665229 
L 383.159677 261.179512 
L 384.027319 262.820257 
L 384.894977 262.569665 
L 385.76265 260.830805 
L 386.630336 263.439944 
L 387.497916 263.450136 
L 388.366569 263.17321 
L 389.236891 263.530411 
L 390.107224 263.61111 
L 390.977569 263.906302 
L 391.847926 261.687918 
L 392.718296 261.191403 
L 393.58868 263.284916 
L 394.45908 261.388482 
L 395.329499 260.942511 
L 396.199939 263.168114 
L 398.823439 263.467126 
L 399.698255 264.610934 
L 400.573123 263.458633 
L 401.448047 260.201351 
L 402.323031 267.806204 
L 403.198082 262.104157 
L 404.519961 262.832998 
L 405.397304 263.621304 
L 406.27474 262.757823 
L 407.152277 262.872074 
L 408.029921 264.752795 
L 408.906018 261.359175 
L 409.789697 265.640912 
L 410.673533 261.791979 
L 411.557536 263.433998 
L 412.441716 263.20549 
L 413.326082 259.499266 
L 414.210645 261.695563 
L 415.095417 262.838095 
L 415.98041 262.761218 
L 416.865634 261.505708 
L 417.750629 263.163867 
L 418.635082 262.814737 
L 419.519774 261.433077 
L 420.410369 261.291641 
L 421.30589 261.900284 
L 422.201738 261.556676 
L 423.096489 262.652063 
L 423.991441 260.66346 
L 424.886794 261.354502 
L 425.782567 263.316772 
L 426.678777 260.897913 
L 427.575444 262.717046 
L 429.370227 262.814311 
L 429.370227 262.814311 
" clip-path="url(#p52a6426ce2)" style="fill: none; stroke: #d62728; stroke-width: 2; stroke-linecap: square"/>
   </g>
   <g id="line2d_14">
    <path d="M 88.774773 221.998577 
L 89.169905 221.997365 
L 89.569164 219.007861 
L 90.358903 216.862142 
L 90.753349 212.656931 
L 91.151911 222.048139 
L 91.554621 213.966529 
L 92.348341 216.486993 
L 93.148336 213.955244 
L 93.55457 222.290314 
L 94.351866 214.099502 
L 94.753348 212.074666 
L 95.158984 206.310838 
L 95.568808 211.931217 
L 95.98285 214.142216 
L 97.183617 209.675891 
L 97.597087 221.588772 
L 98.014792 214.852618 
L 98.809012 211.768824 
L 99.221956 217.609619 
L 99.639119 214.994458 
L 100.060533 214.328781 
L 100.486229 217.678525 
L 101.273679 215.838643 
L 101.694573 219.103767 
L 102.119732 218.351857 
L 102.549186 221.074608 
L 103.338418 214.174851 
L 103.763072 218.358705 
L 104.192001 207.08128 
L 104.625237 218.415927 
L 105.412712 215.594859 
L 105.844193 225.289085 
L 106.276909 215.875314 
L 106.713939 211.985612 
L 107.155313 213.631272 
L 107.937469 209.980121 
L 108.373976 209.351512 
L 108.814803 210.566819 
L 109.259981 204.886802 
L 110.033552 197.614721 
L 110.482679 195.770008 
L 110.927296 204.242885 
L 111.376267 203.19279 
L 112.139818 176.278396 
L 112.598997 167.872407 
L 113.050838 165.257652 
L 113.503581 149.991805 
L 113.960707 128.826337 
L 114.720119 52.571231 
L 115.184809 28.861529 
L 115.641293 20.019545 
L 116.102158 29.204031 
L 116.851544 59.302949 
L 117.322288 59.236073 
L 117.788733 62.618046 
L 118.253293 56.904173 
L 118.992599 61.197235 
L 119.467107 55.944747 
L 119.945193 71.467681 
L 120.413396 70.471587 
L 120.885993 81.645855 
L 121.620778 77.036481 
L 122.102824 84.725616 
L 122.58172 94.145041 
L 123.057888 95.446969 
L 123.782556 105.514332 
L 124.268197 108.23185 
L 124.757491 117.089136 
L 125.237159 114.841473 
L 125.721226 122.453241 
L 126.440814 126.177729 
L 126.933795 131.985474 
L 127.423005 127.214124 
L 127.91048 137.115458 
L 128.619878 147.723582 
L 129.116248 144.357728 
L 129.614611 149.631564 
L 130.105408 148.043124 
L 130.804577 160.731293 
L 131.304233 158.639163 
L 131.807699 157.230845 
L 132.305185 150.329476 
L 132.80359 149.875749 
L 133.49693 164.270821 
L 134.003555 168.423243 
L 134.508985 192.26956 
L 135.010514 185.033744 
L 135.693524 191.195696 
L 136.203196 189.485563 
L 136.71599 196.404659 
L 137.220552 200.162994 
L 138.922187 219.763398 
L 139.432901 214.70393 
L 139.94474 220.099461 
L 140.610628 218.783419 
L 141.129806 230.36749 
L 141.646785 227.496054 
L 142.161456 226.447571 
L 142.816867 221.987293 
L 143.338749 230.989651 
L 143.861461 226.140926 
L 144.378877 228.900745 
L 144.904006 228.014654 
L 145.548292 225.961612 
L 146.07622 229.010348 
L 146.596304 233.257064 
L 147.124334 233.055184 
L 147.757752 234.053699 
L 148.288435 238.249238 
L 148.813081 237.699612 
L 149.344029 229.331098 
L 149.966495 238.783151 
L 150.499588 231.975674 
L 151.387171 226.838033 
L 151.757293 236.42991 
L 152.41918 233.451286 
L 152.788897 239.706315 
L 153.81768 225.916079 
L 154.187722 236.508888 
L 154.843583 235.665106 
L 155.21317 234.331334 
L 155.866555 234.185465 
L 157.605793 231.486489 
L 157.980757 237.728221 
L 158.631628 234.048058 
L 159.006016 232.995548 
L 160.028081 231.449016 
L 160.402552 237.183833 
L 161.046922 237.06738 
L 161.420787 234.125425 
L 162.062515 234.556987 
L 162.809671 233.581842 
L 163.44747 233.998092 
L 163.820748 240.02505 
L 163.947839 235.13482 
L 164.455887 240.309937 
L 164.828532 236.408956 
L 165.052197 230.259501 
L 165.601047 231.733096 
L 166.153744 235.623601 
L 166.707352 238.370528 
L 167.262473 239.73976 
L 167.800991 233.701116 
L 168.355427 239.980322 
L 168.910785 237.393771 
L 169.468433 232.790444 
L 169.996684 238.545409 
L 170.552909 225.264101 
L 171.110009 232.832754 
L 171.670147 238.862936 
L 172.746297 234.143961 
L 173.305158 228.687584 
L 173.867349 238.080402 
L 174.375752 227.950584 
L 174.935785 238.073954 
L 175.496453 229.520889 
L 176.559565 235.425348 
L 177.12141 239.757489 
L 177.684203 237.816065 
L 178.250683 234.957521 
L 178.740002 235.76947 
L 179.303696 231.283 
L 179.868809 231.131086 
L 180.437641 240.345397 
L 180.917504 233.907831 
L 181.483167 233.29212 
L 182.050763 234.085936 
L 182.622115 243.482783 
L 183.66039 236.083773 
L 184.230653 239.21713 
L 184.804716 232.726778 
L 185.265943 233.830061 
L 185.836027 231.655328 
L 186.409165 233.267136 
L 186.986155 229.60309 
L 187.438238 241.181523 
L 188.010838 238.005856 
L 188.587087 240.150368 
L 189.167246 235.422932 
L 189.610015 241.812546 
L 190.185692 233.836508 
L 190.765314 235.586127 
L 191.348911 234.218105 
L 191.782298 235.480957 
L 192.361567 232.967743 
L 192.944852 236.385585 
L 193.532189 241.147675 
L 193.956383 234.837443 
L 194.539558 231.248748 
L 195.126832 234.057729 
L 195.718241 231.220139 
L 196.133461 239.088991 
L 196.720891 236.036628 
L 197.312511 234.89466 
L 197.908362 234.341408 
L 198.314856 232.701391 
L 198.906927 233.41502 
L 199.503291 235.180354 
L 200.103994 235.045768 
L 200.502042 233.180501 
L 201.099181 236.796193 
L 201.700732 238.702561 
L 202.30674 234.051283 
L 202.696655 235.765844 
L 203.299339 244.204068 
L 203.906565 237.652063 
L 204.062616 240.305907 
L 204.746271 230.75634 
L 205.008761 230.356209 
L 205.693591 228.548968 
L 206.379003 237.155224 
L 207.065025 231.391394 
L 207.330515 241.597773 
L 208.017938 237.617409 
L 208.70606 242.249346 
L 208.907518 234.549733 
L 210.774948 237.096392 
L 211.503517 239.59792 
L 231.885912 238.309279 
L 233.721101 235.607887 
L 235.177263 232.144915 
L 235.563654 230.096709 
L 237.016414 235.611513 
L 238.862814 230.093483 
L 240.716424 233.940067 
L 242.168823 225.382569 
L 242.577208 231.708114 
L 244.025902 231.048079 
L 245.890045 232.258144 
L 247.761223 227.28249 
L 249.208379 228.329761 
L 249.639407 232.114289 
L 251.082554 231.917246 
L 252.963628 228.294302 
L 254.851572 241.147675 
L 256.746355 223.37909 
L 258.18264 232.570431 
L 258.64795 224.886536 
L 260.079879 231.028333 
L 261.983828 233.205082 
L 263.894522 233.440808 
L 265.322752 230.888911 
L 265.811875 235.403186 
L 267.2355 234.730256 
L 269.154823 239.761519 
L 271.080678 230.43277 
L 272.499974 231.518323 
L 273.005474 229.898859 
L 274.427548 227.406196 
L 276.353724 235.790021 
L 278.284393 233.870758 
L 279.703697 228.469989 
L 280.221283 229.554737 
L 281.635844 226.241663 
L 285.518575 231.509861 
L 286.928358 230.181328 
L 287.469116 232.94558 
L 288.874067 232.293201 
L 290.825831 226.961336 
L 292.783633 226.938369 
L 294.747457 230.199058 
L 296.142744 231.390588 
L 296.717287 230.184954 
L 298.107686 227.722111 
L 300.0786 228.445005 
L 302.055473 221.78098 
L 303.441381 223.281576 
L 304.038295 228.251186 
L 305.419367 227.296996 
L 307.403289 231.43733 
L 309.393142 226.346028 
L 310.770356 223.262233 
L 311.388925 226.621648 
L 314.913246 224.503328 
L 315.581856 221.911538 
L 316.250891 226.902102 
L 316.920346 211.745855 
L 318.260486 229.627268 
L 318.931158 234.619444 
L 319.602223 234.840262 
L 320.273673 235.252482 
L 320.945501 234.704871 
L 321.617702 226.022055 
L 322.30006 233.611662 
L 322.990128 234.608968 
L 323.680618 234.602925 
L 324.366239 239.577773 
L 325.050515 233.45733 
L 325.73517 236.007615 
L 326.420198 233.052363 
L 327.105591 237.182624 
L 327.791343 229.096581 
L 328.485611 235.327834 
L 329.182191 235.707818 
L 329.879152 236.269534 
L 330.576489 239.595906 
L 331.274194 239.138957 
L 331.972261 237.35952 
L 332.670683 231.914022 
L 333.369455 243.547256 
L 334.071336 235.098555 
L 334.778863 236.118024 
L 335.486658 233.583454 
L 336.194777 239.343255 
L 336.903263 236.308218 
L 337.612112 234.720585 
L 338.32114 232.084472 
L 339.029045 236.271549 
L 339.737313 231.274537 
L 340.445937 233.095076 
L 341.153484 236.407344 
L 341.874053 234.43449 
L 342.595021 236.344483 
L 343.316384 237.129838 
L 344.398835 236.898946 
L 345.123313 233.254644 
L 345.848164 231.705696 
L 346.573384 234.017434 
L 347.29897 229.230361 
L 348.022492 233.54598 
L 348.745779 234.121396 
L 349.469422 233.533891 
L 350.193418 241.885884 
L 350.917765 236.497606 
L 351.64246 236.796999 
L 352.367503 233.86955 
L 353.09289 234.953896 
L 353.818621 233.307433 
L 354.555419 236.016077 
L 355.298634 231.915634 
L 356.042256 237.736684 
L 356.786285 232.983862 
L 357.530719 238.06509 
L 358.274585 239.206251 
L 359.018484 235.990288 
L 359.76279 235.852076 
L 360.507505 239.630559 
L 361.252628 233.422272 
L 361.998161 232.614352 
L 363.490463 236.015271 
L 364.237236 234.410312 
L 364.984428 238.02963 
L 365.73204 233.078555 
L 366.480077 234.432475 
L 367.233061 237.075036 
L 367.997288 234.322469 
L 368.76205 236.507276 
L 369.52751 241.980175 
L 370.293479 235.432602 
L 371.059962 235.689686 
L 371.826966 231.213288 
L 372.594498 240.193081 
L 373.362565 234.841068 
L 374.131177 233.364249 
L 375.670069 241.970906 
L 376.44037 231.319668 
L 377.211256 227.302233 
L 377.982738 234.230998 
L 378.754831 237.648437 
L 379.527548 236.967448 
L 379.689304 241.598578 
L 380.556864 243.322811 
L 381.424448 232.607101 
L 382.292053 230.765207 
L 383.159677 240.477968 
L 384.027319 234.064982 
L 384.894977 237.626274 
L 385.76265 238.726334 
L 386.630336 242.152235 
L 387.497916 234.315215 
L 388.366569 237.587591 
L 389.236891 238.732782 
L 390.107224 242.080912 
L 390.977569 240.006111 
L 391.847926 238.658638 
L 392.718296 241.589714 
L 393.58868 250.576759 
L 394.45908 238.611896 
L 395.329499 239.76716 
L 396.199939 239.967428 
L 397.073943 230.0411 
L 397.948669 242.74256 
L 398.823439 243.131409 
L 399.698255 235.18519 
L 400.573123 238.744065 
L 401.448047 235.038918 
L 402.323031 237.790679 
L 403.198082 241.743239 
L 404.519961 236.676113 
L 405.397304 233.973513 
L 406.27474 238.968509 
L 407.152277 243.027447 
L 408.029921 232.954042 
L 408.906018 238.090073 
L 409.789697 235.189219 
L 410.673533 242.135714 
L 411.557536 235.414469 
L 412.441716 241.342704 
L 413.326082 231.930946 
L 414.210645 238.480533 
L 415.095417 239.152255 
L 415.98041 240.13022 
L 416.865634 239.71518 
L 417.750629 237.407471 
L 418.635082 239.675287 
L 419.519774 234.593252 
L 420.410369 234.267263 
L 421.30589 238.370528 
L 422.201738 234.294664 
L 423.096489 237.059321 
L 423.991441 235.129583 
L 424.886794 241.022759 
L 425.782567 234.246311 
L 426.678777 241.955594 
L 427.575444 237.182624 
L 428.472588 241.10738 
L 429.370227 241.106977 
L 429.370227 241.106977 
" clip-path="url(#p52a6426ce2)" style="fill: none; stroke: #9467bd; stroke-width: 2; stroke-linecap: square"/>
   </g>
   <g id="line2d_15">
    <path d="M 88.774773 248.750535 
L 90.753349 248.807874 
L 92.348341 249.09372 
L 93.148336 249.489996 
L 94.351866 250.486846 
L 94.753348 250.304211 
L 95.158984 252.079172 
L 95.568808 251.424232 
L 95.98285 249.944886 
L 96.774351 243.942977 
L 97.183617 246.431491 
L 97.597087 246.820971 
L 98.014792 244.628072 
L 99.221956 241.110854 
L 99.639119 242.826777 
L 100.060533 243.87417 
L 100.486229 242.621206 
L 101.273679 242.67005 
L 101.694573 243.812159 
L 102.119732 239.93052 
L 102.549186 240.349306 
L 103.338418 240.860686 
L 103.763072 240.953278 
L 104.192001 239.176193 
L 104.625237 241.448517 
L 105.412712 237.373199 
L 105.844193 240.780837 
L 106.276909 241.17329 
L 106.713939 240.684846 
L 107.155313 239.766147 
L 107.937469 239.745336 
L 108.373976 238.040455 
L 108.814803 238.306763 
L 109.259981 237.449651 
L 110.033552 236.939971 
L 110.482679 235.569356 
L 110.927296 233.724313 
L 111.376267 234.174957 
L 112.598997 219.300365 
L 113.050838 211.341283 
L 113.503581 201.189302 
L 113.960707 188.115159 
L 114.720119 183.693259 
L 115.184809 182.732937 
L 115.641293 183.819824 
L 116.102158 182.984796 
L 116.851544 186.558936 
L 117.322288 187.142939 
L 117.788733 186.852847 
L 118.253293 185.038388 
L 118.992599 197.324229 
L 119.467107 201.168065 
L 119.945193 202.33566 
L 120.413396 204.660651 
L 120.885993 203.866398 
L 121.620778 207.076958 
L 122.102824 203.6621 
L 122.58172 208.290849 
L 123.057888 209.742586 
L 123.782556 213.206291 
L 124.268197 211.358697 
L 124.757491 214.16024 
L 125.237159 218.157829 
L 125.721226 218.684076 
L 126.440814 222.824379 
L 126.933795 222.329139 
L 127.423005 222.911024 
L 127.91048 221.284295 
L 128.619878 223.387576 
L 129.116248 223.756244 
L 129.614611 222.044566 
L 130.105408 224.918315 
L 130.804577 225.049982 
L 131.304233 226.062546 
L 131.807699 224.90005 
L 132.305185 226.861046 
L 132.80359 227.085303 
L 134.003555 228.706088 
L 134.508985 229.89789 
L 135.010514 230.549006 
L 135.693524 229.428984 
L 136.203196 230.239376 
L 136.71599 232.386827 
L 137.220552 231.6342 
L 137.893206 238.319081 
L 138.405817 238.17637 
L 138.922187 241.559373 
L 139.432901 243.14915 
L 139.94474 240.559126 
L 140.610628 241.846068 
L 141.129806 240.582485 
L 141.646785 242.963966 
L 142.161456 242.403743 
L 142.816867 243.934058 
L 143.338749 244.092058 
L 144.378877 244.029198 
L 144.904006 243.203516 
L 145.548292 245.511093 
L 146.07622 243.580679 
L 146.596304 243.057833 
L 147.124334 243.396345 
L 147.757752 246.732202 
L 148.288435 244.756766 
L 148.813081 244.399566 
L 149.344029 246.466319 
L 149.966495 244.539728 
L 150.499588 244.341802 
L 151.387171 243.832546 
L 151.757293 243.751422 
L 152.41918 246.035639 
L 152.788897 244.486636 
L 153.448388 244.656954 
L 153.81768 244.096731 
L 154.187722 244.114994 
L 154.843583 245.945595 
L 155.21317 245.85003 
L 155.866555 243.671147 
L 157.605793 243.643115 
L 157.980757 244.913918 
L 159.006016 245.170881 
L 159.381084 243.409087 
L 160.028081 243.744626 
L 160.402552 245.59604 
L 161.046922 245.306796 
L 161.420787 243.386576 
L 162.435765 245.902697 
L 162.809671 245.036666 
L 163.44747 245.384947 
L 163.820748 244.76611 
L 163.947839 245.036666 
L 164.455887 245.051956 
L 164.828532 243.707675 
L 165.052197 244.092908 
L 165.601047 244.369834 
L 166.153744 245.791842 
L 166.707352 244.357092 
L 167.800991 244.115843 
L 168.355427 245.714116 
L 168.910785 243.789223 
L 169.468433 244.274694 
L 169.996684 244.238167 
L 170.552909 243.35642 
L 171.110009 246.024596 
L 171.670147 244.045762 
L 172.188213 243.956993 
L 172.746297 245.951966 
L 173.305158 244.003289 
L 174.375752 243.708949 
L 174.935785 245.809681 
L 175.496453 245.70732 
L 176.060726 244.144725 
L 176.559565 244.138354 
L 177.12141 242.085617 
L 178.250683 245.521287 
L 178.740002 243.581953 
L 179.303696 244.423775 
L 179.868809 244.29593 
L 180.437641 243.941278 
L 180.917504 245.810955 
L 181.483167 243.886912 
L 182.622115 244.67182 
L 183.092608 245.89038 
L 183.66039 244.311646 
L 184.230653 244.270022 
L 184.804716 244.082714 
L 185.265943 242.395248 
L 185.836027 246.158812 
L 186.409165 246.044558 
L 186.986155 243.717868 
L 187.438238 244.291683 
L 188.010838 244.49598 
L 188.587087 246.401759 
L 189.167246 244.41613 
L 189.610015 242.382506 
L 190.185692 244.310796 
L 190.765314 244.132833 
L 191.348911 244.24114 
L 191.782298 245.728981 
L 192.361567 245.715815 
L 192.944852 243.586626 
L 193.532189 242.351076 
L 193.956383 246.1775 
L 194.539558 243.531835 
L 195.126832 244.2645 
L 195.718241 243.873745 
L 196.133461 244.048311 
L 196.720891 244.78225 
L 197.312511 244.012633 
L 198.906927 244.770358 
L 199.503291 244.346049 
L 201.099181 243.77181 
L 202.30674 244.061902 
L 202.696655 242.482318 
L 203.906565 246.341022 
L 204.062616 243.662228 
L 204.746271 246.786568 
L 205.008761 244.815804 
L 206.379003 244.379603 
L 207.065025 242.549427 
L 207.330515 242.564717 
L 208.017938 244.02495 
L 208.70606 242.310726 
L 208.907518 244.675217 
L 210.774948 244.526985 
L 211.503517 242.551125 
L 231.885912 246.320635 
L 233.721101 243.511448 
L 235.177263 243.604889 
L 235.563654 245.267296 
L 237.016414 245.338226 
L 238.862814 245.800336 
L 240.716424 243.912821 
L 242.168823 244.05723 
L 242.577208 245.893778 
L 244.025902 244.078467 
L 249.208379 244.292957 
L 249.639407 244.191446 
L 251.082554 244.43142 
L 252.963628 244.028773 
L 254.851572 244.061902 
L 256.746355 246.27264 
L 258.18264 242.24022 
L 258.64795 244.730433 
L 260.079879 244.664599 
L 263.894522 243.936606 
L 265.322752 242.281844 
L 265.811875 242.085193 
L 267.2355 244.087386 
L 269.154823 243.957418 
L 271.080678 243.942977 
L 272.499974 242.562593 
L 273.005474 244.534631 
L 274.427548 242.536684 
L 276.353724 243.998193 
L 278.284393 244.326936 
L 279.703697 243.773933 
L 280.221283 244.242839 
L 281.635844 245.75574 
L 283.574144 244.584325 
L 285.518575 242.522243 
L 286.928358 254.886236 
L 287.469116 244.277667 
L 290.825831 244.195693 
L 292.783633 244.425899 
L 294.747457 241.782358 
L 296.142744 244.601314 
L 296.717287 243.001343 
L 298.107686 242.792799 
L 300.0786 242.377834 
L 302.055473 240.172193 
L 303.441381 244.558416 
L 304.038295 244.717691 
L 305.419367 243.510598 
L 307.403289 243.748024 
L 309.393142 241.788729 
L 310.770356 243.643965 
L 311.388925 243.704276 
L 314.913246 244.349022 
L 315.581856 242.677696 
L 316.250891 242.851837 
L 316.920346 242.800444 
L 317.590213 242.489539 
L 318.260486 242.525216 
L 318.931158 243.256608 
L 319.602223 243.363216 
L 320.273673 245.202312 
L 320.945501 245.050682 
L 321.617702 243.804514 
L 322.30006 243.92174 
L 322.990128 243.718718 
L 323.680618 245.728981 
L 324.366239 245.675465 
L 325.050515 241.756024 
L 325.73517 245.201462 
L 326.420198 242.975859 
L 327.105591 245.438039 
L 327.791343 244.144301 
L 328.485611 244.099704 
L 329.182191 243.895407 
L 329.879152 245.197215 
L 330.576489 244.921138 
L 331.274194 245.286834 
L 331.972261 245.381549 
L 332.670683 243.66775 
L 333.369455 245.125435 
L 334.071336 243.502953 
L 334.778863 245.430818 
L 335.486658 244.843837 
L 336.194777 243.042967 
L 336.903263 244.720664 
L 337.612112 244.872719 
L 338.32114 242.746927 
L 339.029045 244.831519 
L 339.737313 244.665024 
L 340.445937 244.832369 
L 341.153484 245.577776 
L 341.874053 244.281065 
L 342.595021 243.77818 
L 343.316384 245.25328 
L 344.398835 244.995042 
L 345.123313 244.988671 
L 345.848164 242.718046 
L 346.573384 246.896998 
L 347.29897 245.625771 
L 348.022492 241.515625 
L 348.745779 245.426996 
L 349.469422 243.602765 
L 350.193418 242.895584 
L 350.917765 245.482211 
L 351.64246 245.796089 
L 352.367503 243.145328 
L 353.09289 244.897778 
L 353.818621 244.512969 
L 354.555419 244.785224 
L 355.298634 243.463453 
L 356.042256 242.966939 
L 356.786285 243.529712 
L 357.530719 245.161962 
L 358.274585 245.370081 
L 359.018484 244.452233 
L 359.76279 245.347146 
L 360.507505 244.538878 
L 361.252628 243.46855 
L 361.998161 243.171661 
L 362.744105 243.021305 
L 363.490463 244.776304 
L 364.237236 244.759315 
L 365.73204 245.728981 
L 366.480077 245.418926 
L 367.233061 245.437614 
L 367.997288 244.426748 
L 368.76205 246.713938 
L 369.52751 244.619577 
L 370.293479 246.58397 
L 371.059962 244.468797 
L 371.826966 243.138107 
L 372.594498 244.690933 
L 374.131177 244.813256 
L 374.900341 243.036171 
L 375.670069 245.343748 
L 376.44037 245.048983 
L 377.211256 245.185747 
L 377.982738 242.692562 
L 378.754831 244.41698 
L 379.527548 243.197995 
L 379.689304 244.146849 
L 380.556864 246.132053 
L 381.424448 242.243193 
L 382.292053 246.354614 
L 383.159677 242.923616 
L 384.027319 242.611013 
L 384.894977 244.514668 
L 385.76265 243.06123 
L 386.630336 246.367356 
L 387.497916 244.093758 
L 388.366569 244.508722 
L 389.236891 244.602163 
L 390.107224 244.855729 
L 390.977569 244.712594 
L 391.847926 244.972106 
L 392.718296 242.85396 
L 393.58868 246.296001 
L 394.45908 246.140548 
L 395.329499 244.755917 
L 396.199939 245.089757 
L 397.073943 244.343076 
L 397.948669 244.769933 
L 398.823439 244.182952 
L 399.698255 240.324672 
L 401.448047 250.541637 
L 402.323031 215.488382 
L 403.198082 251.241173 
L 404.519961 244.192296 
L 405.397304 245.601986 
L 406.27474 244.222027 
L 407.152277 246.109967 
L 408.029921 246.570803 
L 408.906018 244.897778 
L 410.673533 244.526985 
L 411.557536 244.71047 
L 412.441716 242.926589 
L 413.326082 244.598341 
L 414.210645 245.088059 
L 415.095417 244.890982 
L 415.98041 244.379178 
L 416.865634 244.15322 
L 417.750629 242.270377 
L 418.635082 244.478141 
L 419.519774 247.18879 
L 420.410369 242.934235 
L 421.30589 245.031569 
L 422.201738 246.79846 
L 423.096489 244.874417 
L 423.991441 244.921563 
L 424.886794 245.246909 
L 425.782567 244.763562 
L 426.678777 246.662121 
L 427.575444 244.102677 
L 428.472588 246.47269 
L 429.370227 246.472265 
L 429.370227 246.472265 
" clip-path="url(#p52a6426ce2)" style="fill: none; stroke: #8c564b; stroke-width: 2; stroke-linecap: square"/>
   </g>
   <g id="patch_3">
    <path d="M 71.745 289.23 
L 71.745 7.2 
" style="fill: none; stroke: #000000; stroke-width: 0.8; stroke-linejoin: miter; stroke-linecap: square"/>
   </g>
   <g id="patch_4">
    <path d="M 446.4 289.23 
L 446.4 7.2 
" style="fill: none; stroke: #000000; stroke-width: 0.8; stroke-linejoin: miter; stroke-linecap: square"/>
   </g>
   <g id="patch_5">
    <path d="M 71.745 289.23 
L 446.4 289.23 
" style="fill: none; stroke: #000000; stroke-width: 0.8; stroke-linejoin: miter; stroke-linecap: square"/>
   </g>
   <g id="patch_6">
    <path d="M 71.745 7.2 
L 446.4 7.2 
" style="fill: none; stroke: #000000; stroke-width: 0.8; stroke-linejoin: miter; stroke-linecap: square"/>
   </g>
   <g id="text_12">
    <g clip-path="url(#p52a6426ce2)">
     <!-- MAST-U 44607  -->
     <g transform="translate(341.9577 26.189175)scale(0.12 -0.12)">
      <defs>
       <path id="DejaVuSans-41" d="M 2188 4044 
L 1331 1722 
L 3047 1722 
L 2188 4044 
z
M 1831 4666 
L 2547 4666 
L 4325 0 
L 3669 0 
L 3244 1197 
L 1141 1197 
L 716 0 
L 50 0 
L 1831 4666 
z
" transform="scale(0.015625)"/>
       <path id="DejaVuSans-53" d="M 3425 4513 
L 3425 3897 
Q 3066 4069 2747 4153 
Q 2428 4238 2131 4238 
Q 1616 4238 1336 4038 
Q 1056 3838 1056 3469 
Q 1056 3159 1242 3001 
Q 1428 2844 1947 2747 
L 2328 2669 
Q 3034 2534 3370 2195 
Q 3706 1856 3706 1288 
Q 3706 609 3251 259 
Q 2797 -91 1919 -91 
Q 1588 -91 1214 -16 
Q 841 59 441 206 
L 441 856 
Q 825 641 1194 531 
Q 1563 422 1919 422 
Q 2459 422 2753 634 
Q 3047 847 3047 1241 
Q 3047 1584 2836 1778 
Q 2625 1972 2144 2069 
L 1759 2144 
Q 1053 2284 737 2584 
Q 422 2884 422 3419 
Q 422 4038 858 4394 
Q 1294 4750 2059 4750 
Q 2388 4750 2728 4690 
Q 3069 4631 3425 4513 
z
" transform="scale(0.015625)"/>
       <path id="DejaVuSans-54" d="M -19 4666 
L 3928 4666 
L 3928 4134 
L 2272 4134 
L 2272 0 
L 1638 0 
L 1638 4134 
L -19 4134 
L -19 4666 
z
" transform="scale(0.015625)"/>
       <path id="DejaVuSans-2d" d="M 313 2009 
L 1997 2009 
L 1997 1497 
L 313 1497 
L 313 2009 
z
" transform="scale(0.015625)"/>
       <path id="DejaVuSans-55" d="M 556 4666 
L 1191 4666 
L 1191 1831 
Q 1191 1081 1462 751 
Q 1734 422 2344 422 
Q 2950 422 3222 751 
Q 3494 1081 3494 1831 
L 3494 4666 
L 4128 4666 
L 4128 1753 
Q 4128 841 3676 375 
Q 3225 -91 2344 -91 
Q 1459 -91 1007 375 
Q 556 841 556 1753 
L 556 4666 
z
" transform="scale(0.015625)"/>
       <path id="DejaVuSans-37" d="M 525 4666 
L 3525 4666 
L 3525 4397 
L 1831 0 
L 1172 0 
L 2766 4134 
L 525 4134 
L 525 4666 
z
" transform="scale(0.015625)"/>
      </defs>
      <use xlink:href="#DejaVuSans-4d"/>
      <use xlink:href="#DejaVuSans-41" x="86.279297"/>
      <use xlink:href="#DejaVuSans-53" x="154.6875"/>
      <use xlink:href="#DejaVuSans-54" x="218.164062"/>
      <use xlink:href="#DejaVuSans-2d" x="270.123047"/>
      <use xlink:href="#DejaVuSans-55" x="306.207031"/>
      <use xlink:href="#DejaVuSans-20" x="379.400391"/>
      <use xlink:href="#DejaVuSans-34" x="411.1875"/>
      <use xlink:href="#DejaVuSans-34" x="474.810547"/>
      <use xlink:href="#DejaVuSans-36" x="538.433594"/>
      <use xlink:href="#DejaVuSans-30" x="602.056641"/>
      <use xlink:href="#DejaVuSans-37" x="665.679688"/>
      <use xlink:href="#DejaVuSans-20" x="729.302734"/>
     </g>
    </g>
   </g>
   <g id="legend_1">
    <g id="patch_7">
     <path d="M 253.8 202.85625 
L 440.4 202.85625 
L 440.4 93.57375 
L 253.8 93.57375 
L 253.8 202.85625 
z
" style="fill: none; opacity: 0"/>
    </g>
    <g id="line2d_16">
     <path d="M 258.6 103.291875 
L 270.6 103.291875 
L 282.6 103.291875 
" style="fill: none; stroke: #1f77b4; stroke-width: 2; stroke-linecap: square"/>
    </g>
    <g id="text_13">
     <!-- 44697, XDC, $t=0.575$ s -->
     <g transform="translate(292.2 107.491875)scale(0.12 -0.12)">
      <defs>
       <path id="DejaVuSans-39" d="M 703 97 
L 703 672 
Q 941 559 1184 500 
Q 1428 441 1663 441 
Q 2288 441 2617 861 
Q 2947 1281 2994 2138 
Q 2813 1869 2534 1725 
Q 2256 1581 1919 1581 
Q 1219 1581 811 2004 
Q 403 2428 403 3163 
Q 403 3881 828 4315 
Q 1253 4750 1959 4750 
Q 2769 4750 3195 4129 
Q 3622 3509 3622 2328 
Q 3622 1225 3098 567 
Q 2575 -91 1691 -91 
Q 1453 -91 1209 -44 
Q 966 3 703 97 
z
M 1959 2075 
Q 2384 2075 2632 2365 
Q 2881 2656 2881 3163 
Q 2881 3666 2632 3958 
Q 2384 4250 1959 4250 
Q 1534 4250 1286 3958 
Q 1038 3666 1038 3163 
Q 1038 2656 1286 2365 
Q 1534 2075 1959 2075 
z
" transform="scale(0.015625)"/>
       <path id="DejaVuSans-2c" d="M 750 794 
L 1409 794 
L 1409 256 
L 897 -744 
L 494 -744 
L 750 256 
L 750 794 
z
" transform="scale(0.015625)"/>
       <path id="DejaVuSans-58" d="M 403 4666 
L 1081 4666 
L 2241 2931 
L 3406 4666 
L 4084 4666 
L 2584 2425 
L 4184 0 
L 3506 0 
L 2194 1984 
L 872 0 
L 191 0 
L 1856 2491 
L 403 4666 
z
" transform="scale(0.015625)"/>
       <path id="DejaVuSans-44" d="M 1259 4147 
L 1259 519 
L 2022 519 
Q 2988 519 3436 956 
Q 3884 1394 3884 2338 
Q 3884 3275 3436 3711 
Q 2988 4147 2022 4147 
L 1259 4147 
z
M 628 4666 
L 1925 4666 
Q 3281 4666 3915 4102 
Q 4550 3538 4550 2338 
Q 4550 1131 3912 565 
Q 3275 0 1925 0 
L 628 0 
L 628 4666 
z
" transform="scale(0.015625)"/>
       <path id="DejaVuSans-43" d="M 4122 4306 
L 4122 3641 
Q 3803 3938 3442 4084 
Q 3081 4231 2675 4231 
Q 1875 4231 1450 3742 
Q 1025 3253 1025 2328 
Q 1025 1406 1450 917 
Q 1875 428 2675 428 
Q 3081 428 3442 575 
Q 3803 722 4122 1019 
L 4122 359 
Q 3791 134 3420 21 
Q 3050 -91 2638 -91 
Q 1578 -91 968 557 
Q 359 1206 359 2328 
Q 359 3453 968 4101 
Q 1578 4750 2638 4750 
Q 3056 4750 3426 4639 
Q 3797 4528 4122 4306 
z
" transform="scale(0.015625)"/>
       <path id="DejaVuSans-Oblique-74" d="M 2706 3500 
L 2619 3053 
L 1472 3053 
L 1100 1153 
Q 1081 1047 1072 975 
Q 1063 903 1063 863 
Q 1063 663 1183 572 
Q 1303 481 1569 481 
L 2150 481 
L 2053 0 
L 1503 0 
Q 991 0 739 200 
Q 488 400 488 806 
Q 488 878 497 964 
Q 506 1050 525 1153 
L 897 3053 
L 409 3053 
L 500 3500 
L 978 3500 
L 1172 4494 
L 1747 4494 
L 1556 3500 
L 2706 3500 
z
" transform="scale(0.015625)"/>
       <path id="DejaVuSans-3d" d="M 678 2906 
L 4684 2906 
L 4684 2381 
L 678 2381 
L 678 2906 
z
M 678 1631 
L 4684 1631 
L 4684 1100 
L 678 1100 
L 678 1631 
z
" transform="scale(0.015625)"/>
       <path id="DejaVuSans-35" d="M 691 4666 
L 3169 4666 
L 3169 4134 
L 1269 4134 
L 1269 2991 
Q 1406 3038 1543 3061 
Q 1681 3084 1819 3084 
Q 2600 3084 3056 2656 
Q 3513 2228 3513 1497 
Q 3513 744 3044 326 
Q 2575 -91 1722 -91 
Q 1428 -91 1123 -41 
Q 819 9 494 109 
L 494 744 
Q 775 591 1075 516 
Q 1375 441 1709 441 
Q 2250 441 2565 725 
Q 2881 1009 2881 1497 
Q 2881 1984 2565 2268 
Q 2250 2553 1709 2553 
Q 1456 2553 1204 2497 
Q 953 2441 691 2322 
L 691 4666 
z
" transform="scale(0.015625)"/>
       <path id="DejaVuSans-73" d="M 2834 3397 
L 2834 2853 
Q 2591 2978 2328 3040 
Q 2066 3103 1784 3103 
Q 1356 3103 1142 2972 
Q 928 2841 928 2578 
Q 928 2378 1081 2264 
Q 1234 2150 1697 2047 
L 1894 2003 
Q 2506 1872 2764 1633 
Q 3022 1394 3022 966 
Q 3022 478 2636 193 
Q 2250 -91 1575 -91 
Q 1294 -91 989 -36 
Q 684 19 347 128 
L 347 722 
Q 666 556 975 473 
Q 1284 391 1588 391 
Q 1994 391 2212 530 
Q 2431 669 2431 922 
Q 2431 1156 2273 1281 
Q 2116 1406 1581 1522 
L 1381 1569 
Q 847 1681 609 1914 
Q 372 2147 372 2553 
Q 372 3047 722 3315 
Q 1072 3584 1716 3584 
Q 2034 3584 2315 3537 
Q 2597 3491 2834 3397 
z
" transform="scale(0.015625)"/>
      </defs>
      <use xlink:href="#DejaVuSans-34" transform="translate(0 0.78125)"/>
      <use xlink:href="#DejaVuSans-34" transform="translate(63.623047 0.78125)"/>
      <use xlink:href="#DejaVuSans-36" transform="translate(127.246094 0.78125)"/>
      <use xlink:href="#DejaVuSans-39" transform="translate(190.869141 0.78125)"/>
      <use xlink:href="#DejaVuSans-37" transform="translate(254.492188 0.78125)"/>
      <use xlink:href="#DejaVuSans-2c" transform="translate(318.115234 0.78125)"/>
      <use xlink:href="#DejaVuSans-20" transform="translate(349.902344 0.78125)"/>
      <use xlink:href="#DejaVuSans-58" transform="translate(381.689453 0.78125)"/>
      <use xlink:href="#DejaVuSans-44" transform="translate(450.195312 0.78125)"/>
      <use xlink:href="#DejaVuSans-43" transform="translate(527.197266 0.78125)"/>
      <use xlink:href="#DejaVuSans-2c" transform="translate(597.021484 0.78125)"/>
      <use xlink:href="#DejaVuSans-20" transform="translate(628.808594 0.78125)"/>
      <use xlink:href="#DejaVuSans-Oblique-74" transform="translate(660.595703 0.78125)"/>
      <use xlink:href="#DejaVuSans-3d" transform="translate(719.287109 0.78125)"/>
      <use xlink:href="#DejaVuSans-30" transform="translate(822.558594 0.78125)"/>
      <use xlink:href="#DejaVuSans-2e" transform="translate(886.181641 0.78125)"/>
      <use xlink:href="#DejaVuSans-35" transform="translate(917.96875 0.78125)"/>
      <use xlink:href="#DejaVuSans-37" transform="translate(974.341797 0.78125)"/>
      <use xlink:href="#DejaVuSans-35" transform="translate(1037.964844 0.78125)"/>
      <use xlink:href="#DejaVuSans-20" transform="translate(1101.587891 0.78125)"/>
      <use xlink:href="#DejaVuSans-73" transform="translate(1133.375 0.78125)"/>
     </g>
    </g>
    <g id="line2d_17">
     <path d="M 258.6 120.905625 
L 270.6 120.905625 
L 282.6 120.905625 
" style="fill: none; stroke: #ff7f0e; stroke-width: 2; stroke-linecap: square"/>
    </g>
    <g id="text_14">
     <!-- 44699, XDC, $t=0.550$ s -->
     <g transform="translate(292.2 125.105625)scale(0.12 -0.12)">
      <use xlink:href="#DejaVuSans-34" transform="translate(0 0.78125)"/>
      <use xlink:href="#DejaVuSans-34" transform="translate(63.623047 0.78125)"/>
      <use xlink:href="#DejaVuSans-36" transform="translate(127.246094 0.78125)"/>
      <use xlink:href="#DejaVuSans-39" transform="translate(190.869141 0.78125)"/>
      <use xlink:href="#DejaVuSans-39" transform="translate(254.492188 0.78125)"/>
      <use xlink:href="#DejaVuSans-2c" transform="translate(318.115234 0.78125)"/>
      <use xlink:href="#DejaVuSans-20" transform="translate(349.902344 0.78125)"/>
      <use xlink:href="#DejaVuSans-58" transform="translate(381.689453 0.78125)"/>
      <use xlink:href="#DejaVuSans-44" transform="translate(450.195312 0.78125)"/>
      <use xlink:href="#DejaVuSans-43" transform="translate(527.197266 0.78125)"/>
      <use xlink:href="#DejaVuSans-2c" transform="translate(597.021484 0.78125)"/>
      <use xlink:href="#DejaVuSans-20" transform="translate(628.808594 0.78125)"/>
      <use xlink:href="#DejaVuSans-Oblique-74" transform="translate(660.595703 0.78125)"/>
      <use xlink:href="#DejaVuSans-3d" transform="translate(719.287109 0.78125)"/>
      <use xlink:href="#DejaVuSans-30" transform="translate(822.558594 0.78125)"/>
      <use xlink:href="#DejaVuSans-2e" transform="translate(886.181641 0.78125)"/>
      <use xlink:href="#DejaVuSans-35" transform="translate(917.96875 0.78125)"/>
      <use xlink:href="#DejaVuSans-35" transform="translate(981.591797 0.78125)"/>
      <use xlink:href="#DejaVuSans-30" transform="translate(1045.214844 0.78125)"/>
      <use xlink:href="#DejaVuSans-20" transform="translate(1108.837891 0.78125)"/>
      <use xlink:href="#DejaVuSans-73" transform="translate(1140.625 0.78125)"/>
     </g>
    </g>
    <g id="line2d_18">
     <path d="M 258.6 138.519375 
L 270.6 138.519375 
L 282.6 138.519375 
" style="fill: none; stroke: #2ca02c; stroke-width: 2; stroke-linecap: square"/>
    </g>
    <g id="text_15">
     <!-- 44700, XDC, $t=0.550$ s -->
     <g transform="translate(292.2 142.719375)scale(0.12 -0.12)">
      <use xlink:href="#DejaVuSans-34" transform="translate(0 0.78125)"/>
      <use xlink:href="#DejaVuSans-34" transform="translate(63.623047 0.78125)"/>
      <use xlink:href="#DejaVuSans-37" transform="translate(127.246094 0.78125)"/>
      <use xlink:href="#DejaVuSans-30" transform="translate(190.869141 0.78125)"/>
      <use xlink:href="#DejaVuSans-30" transform="translate(254.492188 0.78125)"/>
      <use xlink:href="#DejaVuSans-2c" transform="translate(318.115234 0.78125)"/>
      <use xlink:href="#DejaVuSans-20" transform="translate(349.902344 0.78125)"/>
      <use xlink:href="#DejaVuSans-58" transform="translate(381.689453 0.78125)"/>
      <use xlink:href="#DejaVuSans-44" transform="translate(450.195312 0.78125)"/>
      <use xlink:href="#DejaVuSans-43" transform="translate(527.197266 0.78125)"/>
      <use xlink:href="#DejaVuSans-2c" transform="translate(597.021484 0.78125)"/>
      <use xlink:href="#DejaVuSans-20" transform="translate(628.808594 0.78125)"/>
      <use xlink:href="#DejaVuSans-Oblique-74" transform="translate(660.595703 0.78125)"/>
      <use xlink:href="#DejaVuSans-3d" transform="translate(719.287109 0.78125)"/>
      <use xlink:href="#DejaVuSans-30" transform="translate(822.558594 0.78125)"/>
      <use xlink:href="#DejaVuSans-2e" transform="translate(886.181641 0.78125)"/>
      <use xlink:href="#DejaVuSans-35" transform="translate(917.96875 0.78125)"/>
      <use xlink:href="#DejaVuSans-35" transform="translate(981.591797 0.78125)"/>
      <use xlink:href="#DejaVuSans-30" transform="translate(1045.214844 0.78125)"/>
      <use xlink:href="#DejaVuSans-20" transform="translate(1108.837891 0.78125)"/>
      <use xlink:href="#DejaVuSans-73" transform="translate(1140.625 0.78125)"/>
     </g>
    </g>
    <g id="line2d_19">
     <path d="M 258.6 156.133125 
L 270.6 156.133125 
L 282.6 156.133125 
" style="fill: none; stroke: #d62728; stroke-width: 2; stroke-linecap: square"/>
    </g>
    <g id="text_16">
     <!-- 44702, XDC, $t=0.625$ s -->
     <g transform="translate(292.2 160.333125)scale(0.12 -0.12)">
      <use xlink:href="#DejaVuSans-34" transform="translate(0 0.78125)"/>
      <use xlink:href="#DejaVuSans-34" transform="translate(63.623047 0.78125)"/>
      <use xlink:href="#DejaVuSans-37" transform="translate(127.246094 0.78125)"/>
      <use xlink:href="#DejaVuSans-30" transform="translate(190.869141 0.78125)"/>
      <use xlink:href="#DejaVuSans-32" transform="translate(254.492188 0.78125)"/>
      <use xlink:href="#DejaVuSans-2c" transform="translate(318.115234 0.78125)"/>
      <use xlink:href="#DejaVuSans-20" transform="translate(349.902344 0.78125)"/>
      <use xlink:href="#DejaVuSans-58" transform="translate(381.689453 0.78125)"/>
      <use xlink:href="#DejaVuSans-44" transform="translate(450.195312 0.78125)"/>
      <use xlink:href="#DejaVuSans-43" transform="translate(527.197266 0.78125)"/>
      <use xlink:href="#DejaVuSans-2c" transform="translate(597.021484 0.78125)"/>
      <use xlink:href="#DejaVuSans-20" transform="translate(628.808594 0.78125)"/>
      <use xlink:href="#DejaVuSans-Oblique-74" transform="translate(660.595703 0.78125)"/>
      <use xlink:href="#DejaVuSans-3d" transform="translate(719.287109 0.78125)"/>
      <use xlink:href="#DejaVuSans-30" transform="translate(822.558594 0.78125)"/>
      <use xlink:href="#DejaVuSans-2e" transform="translate(886.181641 0.78125)"/>
      <use xlink:href="#DejaVuSans-36" transform="translate(917.96875 0.78125)"/>
      <use xlink:href="#DejaVuSans-32" transform="translate(981.591797 0.78125)"/>
      <use xlink:href="#DejaVuSans-35" transform="translate(1045.214844 0.78125)"/>
      <use xlink:href="#DejaVuSans-20" transform="translate(1108.837891 0.78125)"/>
      <use xlink:href="#DejaVuSans-73" transform="translate(1140.625 0.78125)"/>
     </g>
    </g>
    <g id="line2d_20">
     <path d="M 258.6 173.746875 
L 270.6 173.746875 
L 282.6 173.746875 
" style="fill: none; stroke: #9467bd; stroke-width: 2; stroke-linecap: square"/>
    </g>
    <g id="text_17">
     <!-- 44797, CDC, $t=0.780$ s -->
     <g transform="translate(292.2 177.946875)scale(0.12 -0.12)">
      <use xlink:href="#DejaVuSans-34" transform="translate(0 0.78125)"/>
      <use xlink:href="#DejaVuSans-34" transform="translate(63.623047 0.78125)"/>
      <use xlink:href="#DejaVuSans-37" transform="translate(127.246094 0.78125)"/>
      <use xlink:href="#DejaVuSans-39" transform="translate(190.869141 0.78125)"/>
      <use xlink:href="#DejaVuSans-37" transform="translate(254.492188 0.78125)"/>
      <use xlink:href="#DejaVuSans-2c" transform="translate(318.115234 0.78125)"/>
      <use xlink:href="#DejaVuSans-20" transform="translate(349.902344 0.78125)"/>
      <use xlink:href="#DejaVuSans-43" transform="translate(381.689453 0.78125)"/>
      <use xlink:href="#DejaVuSans-44" transform="translate(451.513672 0.78125)"/>
      <use xlink:href="#DejaVuSans-43" transform="translate(528.515625 0.78125)"/>
      <use xlink:href="#DejaVuSans-2c" transform="translate(598.339844 0.78125)"/>
      <use xlink:href="#DejaVuSans-20" transform="translate(630.126953 0.78125)"/>
      <use xlink:href="#DejaVuSans-Oblique-74" transform="translate(661.914062 0.78125)"/>
      <use xlink:href="#DejaVuSans-3d" transform="translate(720.605469 0.78125)"/>
      <use xlink:href="#DejaVuSans-30" transform="translate(823.876953 0.78125)"/>
      <use xlink:href="#DejaVuSans-2e" transform="translate(887.5 0.78125)"/>
      <use xlink:href="#DejaVuSans-37" transform="translate(911.537109 0.78125)"/>
      <use xlink:href="#DejaVuSans-38" transform="translate(975.160156 0.78125)"/>
      <use xlink:href="#DejaVuSans-30" transform="translate(1038.783203 0.78125)"/>
      <use xlink:href="#DejaVuSans-20" transform="translate(1102.40625 0.78125)"/>
      <use xlink:href="#DejaVuSans-73" transform="translate(1134.193359 0.78125)"/>
     </g>
    </g>
    <g id="line2d_21">
     <path d="M 258.6 191.360625 
L 270.6 191.360625 
L 282.6 191.360625 
" style="fill: none; stroke: #8c564b; stroke-width: 2; stroke-linecap: square"/>
    </g>
    <g id="text_18">
     <!-- 44607, CDC, $t=0.430$ s -->
     <g transform="translate(292.2 195.560625)scale(0.12 -0.12)">
      <defs>
       <path id="DejaVuSans-33" d="M 2597 2516 
Q 3050 2419 3304 2112 
Q 3559 1806 3559 1356 
Q 3559 666 3084 287 
Q 2609 -91 1734 -91 
Q 1441 -91 1130 -33 
Q 819 25 488 141 
L 488 750 
Q 750 597 1062 519 
Q 1375 441 1716 441 
Q 2309 441 2620 675 
Q 2931 909 2931 1356 
Q 2931 1769 2642 2001 
Q 2353 2234 1838 2234 
L 1294 2234 
L 1294 2753 
L 1863 2753 
Q 2328 2753 2575 2939 
Q 2822 3125 2822 3475 
Q 2822 3834 2567 4026 
Q 2313 4219 1838 4219 
Q 1578 4219 1281 4162 
Q 984 4106 628 3988 
L 628 4550 
Q 988 4650 1302 4700 
Q 1616 4750 1894 4750 
Q 2613 4750 3031 4423 
Q 3450 4097 3450 3541 
Q 3450 3153 3228 2886 
Q 3006 2619 2597 2516 
z
" transform="scale(0.015625)"/>
      </defs>
      <use xlink:href="#DejaVuSans-34" transform="translate(0 0.78125)"/>
      <use xlink:href="#DejaVuSans-34" transform="translate(63.623047 0.78125)"/>
      <use xlink:href="#DejaVuSans-36" transform="translate(127.246094 0.78125)"/>
      <use xlink:href="#DejaVuSans-30" transform="translate(190.869141 0.78125)"/>
      <use xlink:href="#DejaVuSans-37" transform="translate(254.492188 0.78125)"/>
      <use xlink:href="#DejaVuSans-2c" transform="translate(318.115234 0.78125)"/>
      <use xlink:href="#DejaVuSans-20" transform="translate(349.902344 0.78125)"/>
      <use xlink:href="#DejaVuSans-43" transform="translate(381.689453 0.78125)"/>
      <use xlink:href="#DejaVuSans-44" transform="translate(451.513672 0.78125)"/>
      <use xlink:href="#DejaVuSans-43" transform="translate(528.515625 0.78125)"/>
      <use xlink:href="#DejaVuSans-2c" transform="translate(598.339844 0.78125)"/>
      <use xlink:href="#DejaVuSans-20" transform="translate(630.126953 0.78125)"/>
      <use xlink:href="#DejaVuSans-Oblique-74" transform="translate(661.914062 0.78125)"/>
      <use xlink:href="#DejaVuSans-3d" transform="translate(720.605469 0.78125)"/>
      <use xlink:href="#DejaVuSans-30" transform="translate(823.876953 0.78125)"/>
      <use xlink:href="#DejaVuSans-2e" transform="translate(887.5 0.78125)"/>
      <use xlink:href="#DejaVuSans-34" transform="translate(919.287109 0.78125)"/>
      <use xlink:href="#DejaVuSans-33" transform="translate(982.910156 0.78125)"/>
      <use xlink:href="#DejaVuSans-30" transform="translate(1046.533203 0.78125)"/>
      <use xlink:href="#DejaVuSans-20" transform="translate(1110.15625 0.78125)"/>
      <use xlink:href="#DejaVuSans-73" transform="translate(1141.943359 0.78125)"/>
     </g>
    </g>
   </g>
  </g>
 </g>
 <defs>
  <clipPath id="p52a6426ce2">
   <rect x="71.745" y="7.2" width="374.655" height="282.03"/>
  </clipPath>
 </defs>
</svg>
